<?xml version="1.0" encoding="utf-8"?>
<svg xmlns="http://www.w3.org/2000/svg" xmlns:xlink="http://www.w3.org/1999/xlink" width="600" height="400" viewBox="0 0 2400 1600">
<defs>
  <clipPath id="clip840">
    <rect x="0" y="0" width="2400" height="1600"/>
  </clipPath>
</defs>
<path clip-path="url(#clip840)" d="M0 1600 L2400 1600 L2400 0 L0 0  Z" fill="#ffffff" fill-rule="evenodd" fill-opacity="1"/>
<defs>
  <clipPath id="clip841">
    <rect x="480" y="0" width="1681" height="1600"/>
  </clipPath>
</defs>
<path clip-path="url(#clip840)" d="M280.19 1423.18 L2352.76 1423.18 L2352.76 47.2441 L280.19 47.2441  Z" fill="#ffffff" fill-rule="evenodd" fill-opacity="1"/>
<defs>
  <clipPath id="clip842">
    <rect x="280" y="47" width="2074" height="1377"/>
  </clipPath>
</defs>
<polyline clip-path="url(#clip842)" style="stroke:#000000; stroke-linecap:round; stroke-linejoin:round; stroke-width:2; stroke-opacity:0.1; fill:none" points="280.19,1423.18 280.19,47.2441 "/>
<polyline clip-path="url(#clip842)" style="stroke:#000000; stroke-linecap:round; stroke-linejoin:round; stroke-width:2; stroke-opacity:0.1; fill:none" points="695.496,1423.18 695.496,47.2441 "/>
<polyline clip-path="url(#clip842)" style="stroke:#000000; stroke-linecap:round; stroke-linejoin:round; stroke-width:2; stroke-opacity:0.1; fill:none" points="1110.8,1423.18 1110.8,47.2441 "/>
<polyline clip-path="url(#clip842)" style="stroke:#000000; stroke-linecap:round; stroke-linejoin:round; stroke-width:2; stroke-opacity:0.1; fill:none" points="1526.11,1423.18 1526.11,47.2441 "/>
<polyline clip-path="url(#clip842)" style="stroke:#000000; stroke-linecap:round; stroke-linejoin:round; stroke-width:2; stroke-opacity:0.1; fill:none" points="1941.41,1423.18 1941.41,47.2441 "/>
<polyline clip-path="url(#clip840)" style="stroke:#000000; stroke-linecap:round; stroke-linejoin:round; stroke-width:4; stroke-opacity:1; fill:none" points="280.19,1423.18 2352.76,1423.18 "/>
<polyline clip-path="url(#clip840)" style="stroke:#000000; stroke-linecap:round; stroke-linejoin:round; stroke-width:4; stroke-opacity:1; fill:none" points="280.19,47.2441 2352.76,47.2441 "/>
<polyline clip-path="url(#clip840)" style="stroke:#000000; stroke-linecap:round; stroke-linejoin:round; stroke-width:4; stroke-opacity:1; fill:none" points="280.19,1423.18 280.19,1404.28 "/>
<polyline clip-path="url(#clip840)" style="stroke:#000000; stroke-linecap:round; stroke-linejoin:round; stroke-width:4; stroke-opacity:1; fill:none" points="695.496,1423.18 695.496,1404.28 "/>
<polyline clip-path="url(#clip840)" style="stroke:#000000; stroke-linecap:round; stroke-linejoin:round; stroke-width:4; stroke-opacity:1; fill:none" points="1110.8,1423.18 1110.8,1404.28 "/>
<polyline clip-path="url(#clip840)" style="stroke:#000000; stroke-linecap:round; stroke-linejoin:round; stroke-width:4; stroke-opacity:1; fill:none" points="1526.11,1423.18 1526.11,1404.28 "/>
<polyline clip-path="url(#clip840)" style="stroke:#000000; stroke-linecap:round; stroke-linejoin:round; stroke-width:4; stroke-opacity:1; fill:none" points="1941.41,1423.18 1941.41,1404.28 "/>
<path clip-path="url(#clip840)" d="M280.19 1454.1 Q276.579 1454.1 274.75 1457.66 Q272.945 1461.2 272.945 1468.33 Q272.945 1475.44 274.75 1479.01 Q276.579 1482.55 280.19 1482.55 Q283.824 1482.55 285.63 1479.01 Q287.458 1475.44 287.458 1468.33 Q287.458 1461.2 285.63 1457.66 Q283.824 1454.1 280.19 1454.1 M280.19 1450.39 Q286 1450.39 289.056 1455 Q292.134 1459.58 292.134 1468.33 Q292.134 1477.06 289.056 1481.67 Q286 1486.25 280.19 1486.25 Q274.38 1486.25 271.301 1481.67 Q268.246 1477.06 268.246 1468.33 Q268.246 1459.58 271.301 1455 Q274.38 1450.39 280.19 1450.39 Z" fill="#000000" fill-rule="nonzero" fill-opacity="1" /><path clip-path="url(#clip840)" d="M655.102 1481.64 L662.741 1481.64 L662.741 1455.28 L654.431 1456.95 L654.431 1452.69 L662.695 1451.02 L667.371 1451.02 L667.371 1481.64 L675.01 1481.64 L675.01 1485.58 L655.102 1485.58 L655.102 1481.64 Z" fill="#000000" fill-rule="nonzero" fill-opacity="1" /><path clip-path="url(#clip840)" d="M694.454 1454.1 Q690.843 1454.1 689.014 1457.66 Q687.209 1461.2 687.209 1468.33 Q687.209 1475.44 689.014 1479.01 Q690.843 1482.55 694.454 1482.55 Q698.088 1482.55 699.894 1479.01 Q701.722 1475.44 701.722 1468.33 Q701.722 1461.2 699.894 1457.66 Q698.088 1454.1 694.454 1454.1 M694.454 1450.39 Q700.264 1450.39 703.32 1455 Q706.398 1459.58 706.398 1468.33 Q706.398 1477.06 703.32 1481.67 Q700.264 1486.25 694.454 1486.25 Q688.644 1486.25 685.565 1481.67 Q682.51 1477.06 682.51 1468.33 Q682.51 1459.58 685.565 1455 Q688.644 1450.39 694.454 1450.39 Z" fill="#000000" fill-rule="nonzero" fill-opacity="1" /><path clip-path="url(#clip840)" d="M724.616 1454.1 Q721.005 1454.1 719.176 1457.66 Q717.37 1461.2 717.37 1468.33 Q717.37 1475.44 719.176 1479.01 Q721.005 1482.55 724.616 1482.55 Q728.25 1482.55 730.056 1479.01 Q731.884 1475.44 731.884 1468.33 Q731.884 1461.2 730.056 1457.66 Q728.25 1454.1 724.616 1454.1 M724.616 1450.39 Q730.426 1450.39 733.482 1455 Q736.56 1459.58 736.56 1468.33 Q736.56 1477.06 733.482 1481.67 Q730.426 1486.25 724.616 1486.25 Q718.806 1486.25 715.727 1481.67 Q712.671 1477.06 712.671 1468.33 Q712.671 1459.58 715.727 1455 Q718.806 1450.39 724.616 1450.39 Z" fill="#000000" fill-rule="nonzero" fill-opacity="1" /><path clip-path="url(#clip840)" d="M1074.49 1481.64 L1090.81 1481.64 L1090.81 1485.58 L1068.87 1485.58 L1068.87 1481.64 Q1071.53 1478.89 1076.11 1474.26 Q1080.72 1469.61 1081.9 1468.27 Q1084.15 1465.74 1085.03 1464.01 Q1085.93 1462.25 1085.93 1460.56 Q1085.93 1457.8 1083.98 1456.07 Q1082.06 1454.33 1078.96 1454.33 Q1076.76 1454.33 1074.31 1455.09 Q1071.88 1455.86 1069.1 1457.41 L1069.1 1452.69 Q1071.92 1451.55 1074.38 1450.97 Q1076.83 1450.39 1078.87 1450.39 Q1084.24 1450.39 1087.43 1453.08 Q1090.63 1455.77 1090.63 1460.26 Q1090.63 1462.39 1089.82 1464.31 Q1089.03 1466.2 1086.92 1468.8 Q1086.35 1469.47 1083.24 1472.69 Q1080.14 1475.88 1074.49 1481.64 Z" fill="#000000" fill-rule="nonzero" fill-opacity="1" /><path clip-path="url(#clip840)" d="M1110.63 1454.1 Q1107.02 1454.1 1105.19 1457.66 Q1103.38 1461.2 1103.38 1468.33 Q1103.38 1475.44 1105.19 1479.01 Q1107.02 1482.55 1110.63 1482.55 Q1114.26 1482.55 1116.07 1479.01 Q1117.9 1475.44 1117.9 1468.33 Q1117.9 1461.2 1116.07 1457.66 Q1114.26 1454.1 1110.63 1454.1 M1110.63 1450.39 Q1116.44 1450.39 1119.49 1455 Q1122.57 1459.58 1122.57 1468.33 Q1122.57 1477.06 1119.49 1481.67 Q1116.44 1486.25 1110.63 1486.25 Q1104.82 1486.25 1101.74 1481.67 Q1098.68 1477.06 1098.68 1468.33 Q1098.68 1459.58 1101.74 1455 Q1104.82 1450.39 1110.63 1450.39 Z" fill="#000000" fill-rule="nonzero" fill-opacity="1" /><path clip-path="url(#clip840)" d="M1140.79 1454.1 Q1137.18 1454.1 1135.35 1457.66 Q1133.54 1461.2 1133.54 1468.33 Q1133.54 1475.44 1135.35 1479.01 Q1137.18 1482.55 1140.79 1482.55 Q1144.42 1482.55 1146.23 1479.01 Q1148.06 1475.44 1148.06 1468.33 Q1148.06 1461.2 1146.23 1457.66 Q1144.42 1454.1 1140.79 1454.1 M1140.79 1450.39 Q1146.6 1450.39 1149.66 1455 Q1152.73 1459.58 1152.73 1468.33 Q1152.73 1477.06 1149.66 1481.67 Q1146.6 1486.25 1140.79 1486.25 Q1134.98 1486.25 1131.9 1481.67 Q1128.85 1477.06 1128.85 1468.33 Q1128.85 1459.58 1131.9 1455 Q1134.98 1450.39 1140.79 1450.39 Z" fill="#000000" fill-rule="nonzero" fill-opacity="1" /><path clip-path="url(#clip840)" d="M1499.87 1466.95 Q1503.22 1467.66 1505.1 1469.93 Q1507 1472.2 1507 1475.53 Q1507 1480.65 1503.48 1483.45 Q1499.96 1486.25 1493.48 1486.25 Q1491.3 1486.25 1488.99 1485.81 Q1486.7 1485.39 1484.24 1484.54 L1484.24 1480.02 Q1486.19 1481.16 1488.5 1481.74 Q1490.82 1482.32 1493.34 1482.32 Q1497.74 1482.32 1500.03 1480.58 Q1502.35 1478.84 1502.35 1475.53 Q1502.35 1472.48 1500.19 1470.77 Q1498.06 1469.03 1494.24 1469.03 L1490.22 1469.03 L1490.22 1465.19 L1494.43 1465.19 Q1497.88 1465.19 1499.71 1463.82 Q1501.54 1462.43 1501.54 1459.84 Q1501.54 1457.18 1499.64 1455.77 Q1497.76 1454.33 1494.24 1454.33 Q1492.32 1454.33 1490.12 1454.75 Q1487.92 1455.16 1485.29 1456.04 L1485.29 1451.88 Q1487.95 1451.14 1490.26 1450.77 Q1492.6 1450.39 1494.66 1450.39 Q1499.98 1450.39 1503.09 1452.83 Q1506.19 1455.23 1506.19 1459.35 Q1506.19 1462.22 1504.54 1464.21 Q1502.9 1466.18 1499.87 1466.95 Z" fill="#000000" fill-rule="nonzero" fill-opacity="1" /><path clip-path="url(#clip840)" d="M1525.86 1454.1 Q1522.25 1454.1 1520.42 1457.66 Q1518.62 1461.2 1518.62 1468.33 Q1518.62 1475.44 1520.42 1479.01 Q1522.25 1482.55 1525.86 1482.55 Q1529.5 1482.55 1531.3 1479.01 Q1533.13 1475.44 1533.13 1468.33 Q1533.13 1461.2 1531.3 1457.66 Q1529.5 1454.1 1525.86 1454.1 M1525.86 1450.39 Q1531.67 1450.39 1534.73 1455 Q1537.81 1459.58 1537.81 1468.33 Q1537.81 1477.06 1534.73 1481.67 Q1531.67 1486.25 1525.86 1486.25 Q1520.05 1486.25 1516.97 1481.67 Q1513.92 1477.06 1513.92 1468.33 Q1513.92 1459.58 1516.97 1455 Q1520.05 1450.39 1525.86 1450.39 Z" fill="#000000" fill-rule="nonzero" fill-opacity="1" /><path clip-path="url(#clip840)" d="M1556.03 1454.1 Q1552.41 1454.1 1550.59 1457.66 Q1548.78 1461.2 1548.78 1468.33 Q1548.78 1475.44 1550.59 1479.01 Q1552.41 1482.55 1556.03 1482.55 Q1559.66 1482.55 1561.47 1479.01 Q1563.29 1475.44 1563.29 1468.33 Q1563.29 1461.2 1561.47 1457.66 Q1559.66 1454.1 1556.03 1454.1 M1556.03 1450.39 Q1561.84 1450.39 1564.89 1455 Q1567.97 1459.58 1567.97 1468.33 Q1567.97 1477.06 1564.89 1481.67 Q1561.84 1486.25 1556.03 1486.25 Q1550.22 1486.25 1547.14 1481.67 Q1544.08 1477.06 1544.08 1468.33 Q1544.08 1459.58 1547.14 1455 Q1550.22 1450.39 1556.03 1450.39 Z" fill="#000000" fill-rule="nonzero" fill-opacity="1" /><path clip-path="url(#clip840)" d="M1914.5 1455.09 L1902.7 1473.54 L1914.5 1473.54 L1914.5 1455.09 M1913.28 1451.02 L1919.16 1451.02 L1919.16 1473.54 L1924.09 1473.54 L1924.09 1477.43 L1919.16 1477.43 L1919.16 1485.58 L1914.5 1485.58 L1914.5 1477.43 L1898.9 1477.43 L1898.9 1472.92 L1913.28 1451.02 Z" fill="#000000" fill-rule="nonzero" fill-opacity="1" /><path clip-path="url(#clip840)" d="M1941.82 1454.1 Q1938.21 1454.1 1936.38 1457.66 Q1934.57 1461.2 1934.57 1468.33 Q1934.57 1475.44 1936.38 1479.01 Q1938.21 1482.55 1941.82 1482.55 Q1945.45 1482.55 1947.26 1479.01 Q1949.09 1475.44 1949.09 1468.33 Q1949.09 1461.2 1947.26 1457.66 Q1945.45 1454.1 1941.82 1454.1 M1941.82 1450.39 Q1947.63 1450.39 1950.68 1455 Q1953.76 1459.58 1953.76 1468.33 Q1953.76 1477.06 1950.68 1481.67 Q1947.63 1486.25 1941.82 1486.25 Q1936.01 1486.25 1932.93 1481.67 Q1929.87 1477.06 1929.87 1468.33 Q1929.87 1459.58 1932.93 1455 Q1936.01 1450.39 1941.82 1450.39 Z" fill="#000000" fill-rule="nonzero" fill-opacity="1" /><path clip-path="url(#clip840)" d="M1971.98 1454.1 Q1968.37 1454.1 1966.54 1457.66 Q1964.73 1461.2 1964.73 1468.33 Q1964.73 1475.44 1966.54 1479.01 Q1968.37 1482.55 1971.98 1482.55 Q1975.61 1482.55 1977.42 1479.01 Q1979.25 1475.44 1979.25 1468.33 Q1979.25 1461.2 1977.42 1457.66 Q1975.61 1454.1 1971.98 1454.1 M1971.98 1450.39 Q1977.79 1450.39 1980.84 1455 Q1983.92 1459.58 1983.92 1468.33 Q1983.92 1477.06 1980.84 1481.67 Q1977.79 1486.25 1971.98 1486.25 Q1966.17 1486.25 1963.09 1481.67 Q1960.03 1477.06 1960.03 1468.33 Q1960.03 1459.58 1963.09 1455 Q1966.17 1450.39 1971.98 1450.39 Z" fill="#000000" fill-rule="nonzero" fill-opacity="1" /><path clip-path="url(#clip840)" d="M1194.38 1526.86 L1185.66 1550.51 L1203.13 1550.51 L1194.38 1526.86 M1190.75 1520.52 L1198.04 1520.52 L1216.15 1568.04 L1209.47 1568.04 L1205.14 1555.85 L1183.72 1555.85 L1179.39 1568.04 L1172.61 1568.04 L1190.75 1520.52 Z" fill="#000000" fill-rule="nonzero" fill-opacity="1" /><path clip-path="url(#clip840)" d="M1246.29 1549.81 Q1246.29 1543.44 1243.65 1539.94 Q1241.04 1536.44 1236.3 1536.44 Q1231.59 1536.44 1228.94 1539.94 Q1226.33 1543.44 1226.33 1549.81 Q1226.33 1556.14 1228.94 1559.64 Q1231.59 1563.14 1236.3 1563.14 Q1241.04 1563.14 1243.65 1559.64 Q1246.29 1556.14 1246.29 1549.81 M1252.15 1563.62 Q1252.15 1572.72 1248.11 1577.15 Q1244.06 1581.6 1235.72 1581.6 Q1232.64 1581.6 1229.9 1581.13 Q1227.16 1580.68 1224.58 1579.72 L1224.58 1574.03 Q1227.16 1575.43 1229.68 1576.1 Q1232.19 1576.76 1234.8 1576.76 Q1240.56 1576.76 1243.43 1573.74 Q1246.29 1570.75 1246.29 1564.67 L1246.29 1561.77 Q1244.48 1564.92 1241.64 1566.48 Q1238.81 1568.04 1234.86 1568.04 Q1228.31 1568.04 1224.3 1563.05 Q1220.29 1558.05 1220.29 1549.81 Q1220.29 1541.53 1224.3 1536.53 Q1228.31 1531.54 1234.86 1531.54 Q1238.81 1531.54 1241.64 1533.1 Q1244.48 1534.66 1246.29 1537.81 L1246.29 1532.4 L1252.15 1532.4 L1252.15 1563.62 Z" fill="#000000" fill-rule="nonzero" fill-opacity="1" /><path clip-path="url(#clip840)" d="M1294.7 1548.76 L1294.7 1551.62 L1267.78 1551.62 Q1268.16 1557.67 1271.4 1560.85 Q1274.68 1564 1280.51 1564 Q1283.88 1564 1287.03 1563.17 Q1290.21 1562.35 1293.33 1560.69 L1293.33 1566.23 Q1290.18 1567.57 1286.87 1568.27 Q1283.56 1568.97 1280.16 1568.97 Q1271.63 1568.97 1266.63 1564 Q1261.66 1559.04 1261.66 1550.57 Q1261.66 1541.82 1266.37 1536.69 Q1271.12 1531.54 1279.14 1531.54 Q1286.33 1531.54 1290.5 1536.18 Q1294.7 1540.8 1294.7 1548.76 M1288.85 1547.04 Q1288.78 1542.23 1286.14 1539.37 Q1283.53 1536.5 1279.2 1536.5 Q1274.3 1536.5 1271.34 1539.27 Q1268.41 1542.04 1267.97 1547.07 L1288.85 1547.04 Z" fill="#000000" fill-rule="nonzero" fill-opacity="1" /><path clip-path="url(#clip840)" d="M1324.49 1518.52 L1337.99 1518.52 L1337.99 1523.07 L1330.35 1523.07 L1330.35 1572.09 L1337.99 1572.09 L1337.99 1576.64 L1324.49 1576.64 L1324.49 1518.52 Z" fill="#000000" fill-rule="nonzero" fill-opacity="1" /><path clip-path="url(#clip840)" d="M1350.72 1520.52 L1360.3 1520.52 L1372.43 1552.86 L1384.62 1520.52 L1394.2 1520.52 L1394.2 1568.04 L1387.93 1568.04 L1387.93 1526.32 L1375.67 1558.91 L1369.21 1558.91 L1356.96 1526.32 L1356.96 1568.04 L1350.72 1568.04 L1350.72 1520.52 Z" fill="#000000" fill-rule="nonzero" fill-opacity="1" /><path clip-path="url(#clip840)" d="M1422.91 1550.12 Q1415.81 1550.12 1413.07 1551.75 Q1410.34 1553.37 1410.34 1557.29 Q1410.34 1560.4 1412.37 1562.25 Q1414.44 1564.07 1417.97 1564.07 Q1422.84 1564.07 1425.77 1560.63 Q1428.73 1557.16 1428.73 1551.43 L1428.73 1550.12 L1422.91 1550.12 M1434.59 1547.71 L1434.59 1568.04 L1428.73 1568.04 L1428.73 1562.63 Q1426.73 1565.88 1423.74 1567.44 Q1420.74 1568.97 1416.41 1568.97 Q1410.94 1568.97 1407.69 1565.91 Q1404.48 1562.82 1404.48 1557.67 Q1404.48 1551.65 1408.49 1548.6 Q1412.53 1545.54 1420.52 1545.54 L1428.73 1545.54 L1428.73 1544.97 Q1428.73 1540.93 1426.06 1538.73 Q1423.42 1536.5 1418.61 1536.5 Q1415.56 1536.5 1412.66 1537.23 Q1409.76 1537.97 1407.09 1539.43 L1407.09 1534.02 Q1410.3 1532.78 1413.33 1532.17 Q1416.35 1531.54 1419.22 1531.54 Q1426.95 1531.54 1430.77 1535.55 Q1434.59 1539.56 1434.59 1547.71 Z" fill="#000000" fill-rule="nonzero" fill-opacity="1" /><path clip-path="url(#clip840)" d="M1460.34 1518.52 L1460.34 1576.64 L1446.84 1576.64 L1446.84 1572.09 L1454.45 1572.09 L1454.45 1523.07 L1446.84 1523.07 L1446.84 1518.52 L1460.34 1518.52 Z" fill="#000000" fill-rule="nonzero" fill-opacity="1" /><polyline clip-path="url(#clip842)" style="stroke:#000000; stroke-linecap:round; stroke-linejoin:round; stroke-width:2; stroke-opacity:0.1; fill:none" points="280.19,1423.18 2352.76,1423.18 "/>
<polyline clip-path="url(#clip842)" style="stroke:#000000; stroke-linecap:round; stroke-linejoin:round; stroke-width:2; stroke-opacity:0.1; fill:none" points="280.19,1214.48 2352.76,1214.48 "/>
<polyline clip-path="url(#clip842)" style="stroke:#000000; stroke-linecap:round; stroke-linejoin:round; stroke-width:2; stroke-opacity:0.1; fill:none" points="280.19,1005.79 2352.76,1005.79 "/>
<polyline clip-path="url(#clip842)" style="stroke:#000000; stroke-linecap:round; stroke-linejoin:round; stroke-width:2; stroke-opacity:0.1; fill:none" points="280.19,797.093 2352.76,797.093 "/>
<polyline clip-path="url(#clip842)" style="stroke:#000000; stroke-linecap:round; stroke-linejoin:round; stroke-width:2; stroke-opacity:0.1; fill:none" points="280.19,588.398 2352.76,588.398 "/>
<polyline clip-path="url(#clip842)" style="stroke:#000000; stroke-linecap:round; stroke-linejoin:round; stroke-width:2; stroke-opacity:0.1; fill:none" points="280.19,379.702 2352.76,379.702 "/>
<polyline clip-path="url(#clip842)" style="stroke:#000000; stroke-linecap:round; stroke-linejoin:round; stroke-width:2; stroke-opacity:0.1; fill:none" points="280.19,171.007 2352.76,171.007 "/>
<polyline clip-path="url(#clip840)" style="stroke:#000000; stroke-linecap:round; stroke-linejoin:round; stroke-width:4; stroke-opacity:1; fill:none" points="280.19,1423.18 280.19,47.2441 "/>
<polyline clip-path="url(#clip840)" style="stroke:#000000; stroke-linecap:round; stroke-linejoin:round; stroke-width:4; stroke-opacity:1; fill:none" points="2352.76,1423.18 2352.76,47.2441 "/>
<polyline clip-path="url(#clip840)" style="stroke:#000000; stroke-linecap:round; stroke-linejoin:round; stroke-width:4; stroke-opacity:1; fill:none" points="280.19,1423.18 299.088,1423.18 "/>
<polyline clip-path="url(#clip840)" style="stroke:#000000; stroke-linecap:round; stroke-linejoin:round; stroke-width:4; stroke-opacity:1; fill:none" points="280.19,1214.48 299.088,1214.48 "/>
<polyline clip-path="url(#clip840)" style="stroke:#000000; stroke-linecap:round; stroke-linejoin:round; stroke-width:4; stroke-opacity:1; fill:none" points="280.19,1005.79 299.088,1005.79 "/>
<polyline clip-path="url(#clip840)" style="stroke:#000000; stroke-linecap:round; stroke-linejoin:round; stroke-width:4; stroke-opacity:1; fill:none" points="280.19,797.093 299.088,797.093 "/>
<polyline clip-path="url(#clip840)" style="stroke:#000000; stroke-linecap:round; stroke-linejoin:round; stroke-width:4; stroke-opacity:1; fill:none" points="280.19,588.398 299.088,588.398 "/>
<polyline clip-path="url(#clip840)" style="stroke:#000000; stroke-linecap:round; stroke-linejoin:round; stroke-width:4; stroke-opacity:1; fill:none" points="280.19,379.702 299.088,379.702 "/>
<polyline clip-path="url(#clip840)" style="stroke:#000000; stroke-linecap:round; stroke-linejoin:round; stroke-width:4; stroke-opacity:1; fill:none" points="280.19,171.007 299.088,171.007 "/>
<path clip-path="url(#clip840)" d="M126.691 1408.98 Q123.08 1408.98 121.251 1412.54 Q119.445 1416.08 119.445 1423.21 Q119.445 1430.32 121.251 1433.89 Q123.08 1437.43 126.691 1437.43 Q130.325 1437.43 132.13 1433.89 Q133.959 1430.32 133.959 1423.21 Q133.959 1416.08 132.13 1412.54 Q130.325 1408.98 126.691 1408.98 M126.691 1405.27 Q132.501 1405.27 135.556 1409.88 Q138.635 1414.46 138.635 1423.21 Q138.635 1431.94 135.556 1436.55 Q132.501 1441.13 126.691 1441.13 Q120.88 1441.13 117.802 1436.55 Q114.746 1431.94 114.746 1423.21 Q114.746 1414.46 117.802 1409.88 Q120.88 1405.27 126.691 1405.27 Z" fill="#000000" fill-rule="nonzero" fill-opacity="1" /><path clip-path="url(#clip840)" d="M146.853 1434.58 L151.737 1434.58 L151.737 1440.46 L146.853 1440.46 L146.853 1434.58 Z" fill="#000000" fill-rule="nonzero" fill-opacity="1" /><path clip-path="url(#clip840)" d="M171.922 1408.98 Q168.311 1408.98 166.482 1412.54 Q164.677 1416.08 164.677 1423.21 Q164.677 1430.32 166.482 1433.89 Q168.311 1437.43 171.922 1437.43 Q175.556 1437.43 177.362 1433.89 Q179.19 1430.32 179.19 1423.21 Q179.19 1416.08 177.362 1412.54 Q175.556 1408.98 171.922 1408.98 M171.922 1405.27 Q177.732 1405.27 180.788 1409.88 Q183.866 1414.46 183.866 1423.21 Q183.866 1431.94 180.788 1436.55 Q177.732 1441.13 171.922 1441.13 Q166.112 1441.13 163.033 1436.55 Q159.978 1431.94 159.978 1423.21 Q159.978 1414.46 163.033 1409.88 Q166.112 1405.27 171.922 1405.27 Z" fill="#000000" fill-rule="nonzero" fill-opacity="1" /><path clip-path="url(#clip840)" d="M202.084 1408.98 Q198.473 1408.98 196.644 1412.54 Q194.838 1416.08 194.838 1423.21 Q194.838 1430.32 196.644 1433.89 Q198.473 1437.43 202.084 1437.43 Q205.718 1437.43 207.524 1433.89 Q209.352 1430.32 209.352 1423.21 Q209.352 1416.08 207.524 1412.54 Q205.718 1408.98 202.084 1408.98 M202.084 1405.27 Q207.894 1405.27 210.949 1409.88 Q214.028 1414.46 214.028 1423.21 Q214.028 1431.94 210.949 1436.55 Q207.894 1441.13 202.084 1441.13 Q196.274 1441.13 193.195 1436.55 Q190.139 1431.94 190.139 1423.21 Q190.139 1414.46 193.195 1409.88 Q196.274 1405.27 202.084 1405.27 Z" fill="#000000" fill-rule="nonzero" fill-opacity="1" /><path clip-path="url(#clip840)" d="M232.246 1408.98 Q228.635 1408.98 226.806 1412.54 Q225 1416.08 225 1423.21 Q225 1430.32 226.806 1433.89 Q228.635 1437.43 232.246 1437.43 Q235.88 1437.43 237.685 1433.89 Q239.514 1430.32 239.514 1423.21 Q239.514 1416.08 237.685 1412.54 Q235.88 1408.98 232.246 1408.98 M232.246 1405.27 Q238.056 1405.27 241.111 1409.88 Q244.19 1414.46 244.19 1423.21 Q244.19 1431.94 241.111 1436.55 Q238.056 1441.13 232.246 1441.13 Q226.435 1441.13 223.357 1436.55 Q220.301 1431.94 220.301 1423.21 Q220.301 1414.46 223.357 1409.88 Q226.435 1405.27 232.246 1405.27 Z" fill="#000000" fill-rule="nonzero" fill-opacity="1" /><path clip-path="url(#clip840)" d="M127.917 1200.28 Q124.306 1200.28 122.478 1203.85 Q120.672 1207.39 120.672 1214.52 Q120.672 1221.63 122.478 1225.19 Q124.306 1228.73 127.917 1228.73 Q131.552 1228.73 133.357 1225.19 Q135.186 1221.63 135.186 1214.52 Q135.186 1207.39 133.357 1203.85 Q131.552 1200.28 127.917 1200.28 M127.917 1196.58 Q133.728 1196.58 136.783 1201.19 Q139.862 1205.77 139.862 1214.52 Q139.862 1223.25 136.783 1227.85 Q133.728 1232.44 127.917 1232.44 Q122.107 1232.44 119.029 1227.85 Q115.973 1223.25 115.973 1214.52 Q115.973 1205.77 119.029 1201.19 Q122.107 1196.58 127.917 1196.58 Z" fill="#000000" fill-rule="nonzero" fill-opacity="1" /><path clip-path="url(#clip840)" d="M148.079 1225.88 L152.964 1225.88 L152.964 1231.76 L148.079 1231.76 L148.079 1225.88 Z" fill="#000000" fill-rule="nonzero" fill-opacity="1" /><path clip-path="url(#clip840)" d="M173.149 1200.28 Q169.538 1200.28 167.709 1203.85 Q165.903 1207.39 165.903 1214.52 Q165.903 1221.63 167.709 1225.19 Q169.538 1228.73 173.149 1228.73 Q176.783 1228.73 178.589 1225.19 Q180.417 1221.63 180.417 1214.52 Q180.417 1207.39 178.589 1203.85 Q176.783 1200.28 173.149 1200.28 M173.149 1196.58 Q178.959 1196.58 182.014 1201.19 Q185.093 1205.77 185.093 1214.52 Q185.093 1223.25 182.014 1227.85 Q178.959 1232.44 173.149 1232.44 Q167.339 1232.44 164.26 1227.85 Q161.204 1223.25 161.204 1214.52 Q161.204 1205.77 164.26 1201.19 Q167.339 1196.58 173.149 1196.58 Z" fill="#000000" fill-rule="nonzero" fill-opacity="1" /><path clip-path="url(#clip840)" d="M203.311 1200.28 Q199.7 1200.28 197.871 1203.85 Q196.065 1207.39 196.065 1214.52 Q196.065 1221.63 197.871 1225.19 Q199.7 1228.73 203.311 1228.73 Q206.945 1228.73 208.75 1225.19 Q210.579 1221.63 210.579 1214.52 Q210.579 1207.39 208.75 1203.85 Q206.945 1200.28 203.311 1200.28 M203.311 1196.58 Q209.121 1196.58 212.176 1201.19 Q215.255 1205.77 215.255 1214.52 Q215.255 1223.25 212.176 1227.85 Q209.121 1232.44 203.311 1232.44 Q197.5 1232.44 194.422 1227.85 Q191.366 1223.25 191.366 1214.52 Q191.366 1205.77 194.422 1201.19 Q197.5 1196.58 203.311 1196.58 Z" fill="#000000" fill-rule="nonzero" fill-opacity="1" /><path clip-path="url(#clip840)" d="M224.283 1227.83 L231.922 1227.83 L231.922 1201.46 L223.611 1203.13 L223.611 1198.87 L231.875 1197.2 L236.551 1197.2 L236.551 1227.83 L244.19 1227.83 L244.19 1231.76 L224.283 1231.76 L224.283 1227.83 Z" fill="#000000" fill-rule="nonzero" fill-opacity="1" /><path clip-path="url(#clip840)" d="M128.288 991.588 Q124.677 991.588 122.848 995.152 Q121.043 998.694 121.043 1005.82 Q121.043 1012.93 122.848 1016.49 Q124.677 1020.04 128.288 1020.04 Q131.922 1020.04 133.728 1016.49 Q135.556 1012.93 135.556 1005.82 Q135.556 998.694 133.728 995.152 Q131.922 991.588 128.288 991.588 M128.288 987.884 Q134.098 987.884 137.154 992.49 Q140.232 997.074 140.232 1005.82 Q140.232 1014.55 137.154 1019.16 Q134.098 1023.74 128.288 1023.74 Q122.478 1023.74 119.399 1019.16 Q116.343 1014.55 116.343 1005.82 Q116.343 997.074 119.399 992.49 Q122.478 987.884 128.288 987.884 Z" fill="#000000" fill-rule="nonzero" fill-opacity="1" /><path clip-path="url(#clip840)" d="M148.45 1017.19 L153.334 1017.19 L153.334 1023.07 L148.45 1023.07 L148.45 1017.19 Z" fill="#000000" fill-rule="nonzero" fill-opacity="1" /><path clip-path="url(#clip840)" d="M173.519 991.588 Q169.908 991.588 168.079 995.152 Q166.274 998.694 166.274 1005.82 Q166.274 1012.93 168.079 1016.49 Q169.908 1020.04 173.519 1020.04 Q177.153 1020.04 178.959 1016.49 Q180.788 1012.93 180.788 1005.82 Q180.788 998.694 178.959 995.152 Q177.153 991.588 173.519 991.588 M173.519 987.884 Q179.329 987.884 182.385 992.49 Q185.463 997.074 185.463 1005.82 Q185.463 1014.55 182.385 1019.16 Q179.329 1023.74 173.519 1023.74 Q167.709 1023.74 164.63 1019.16 Q161.575 1014.55 161.575 1005.82 Q161.575 997.074 164.63 992.49 Q167.709 987.884 173.519 987.884 Z" fill="#000000" fill-rule="nonzero" fill-opacity="1" /><path clip-path="url(#clip840)" d="M203.681 991.588 Q200.07 991.588 198.241 995.152 Q196.436 998.694 196.436 1005.82 Q196.436 1012.93 198.241 1016.49 Q200.07 1020.04 203.681 1020.04 Q207.315 1020.04 209.121 1016.49 Q210.949 1012.93 210.949 1005.82 Q210.949 998.694 209.121 995.152 Q207.315 991.588 203.681 991.588 M203.681 987.884 Q209.491 987.884 212.547 992.49 Q215.625 997.074 215.625 1005.82 Q215.625 1014.55 212.547 1019.16 Q209.491 1023.74 203.681 1023.74 Q197.871 1023.74 194.792 1019.16 Q191.737 1014.55 191.737 1005.82 Q191.737 997.074 194.792 992.49 Q197.871 987.884 203.681 987.884 Z" fill="#000000" fill-rule="nonzero" fill-opacity="1" /><path clip-path="url(#clip840)" d="M227.871 1019.13 L244.19 1019.13 L244.19 1023.07 L222.246 1023.07 L222.246 1019.13 Q224.908 1016.38 229.491 1011.75 Q234.097 1007.1 235.278 1005.75 Q237.523 1003.23 238.403 1001.49 Q239.306 999.736 239.306 998.046 Q239.306 995.291 237.361 993.555 Q235.44 991.819 232.338 991.819 Q230.139 991.819 227.685 992.583 Q225.255 993.347 222.477 994.898 L222.477 990.175 Q225.301 989.041 227.755 988.463 Q230.209 987.884 232.246 987.884 Q237.616 987.884 240.81 990.569 Q244.005 993.254 244.005 997.745 Q244.005 999.875 243.195 1001.8 Q242.408 1003.69 240.301 1006.29 Q239.722 1006.96 236.621 1010.18 Q233.519 1013.37 227.871 1019.13 Z" fill="#000000" fill-rule="nonzero" fill-opacity="1" /><path clip-path="url(#clip840)" d="M127.339 782.892 Q123.728 782.892 121.899 786.457 Q120.093 789.998 120.093 797.128 Q120.093 804.234 121.899 807.799 Q123.728 811.341 127.339 811.341 Q130.973 811.341 132.779 807.799 Q134.607 804.234 134.607 797.128 Q134.607 789.998 132.779 786.457 Q130.973 782.892 127.339 782.892 M127.339 779.188 Q133.149 779.188 136.204 783.795 Q139.283 788.378 139.283 797.128 Q139.283 805.855 136.204 810.461 Q133.149 815.045 127.339 815.045 Q121.529 815.045 118.45 810.461 Q115.394 805.855 115.394 797.128 Q115.394 788.378 118.45 783.795 Q121.529 779.188 127.339 779.188 Z" fill="#000000" fill-rule="nonzero" fill-opacity="1" /><path clip-path="url(#clip840)" d="M147.501 808.494 L152.385 808.494 L152.385 814.373 L147.501 814.373 L147.501 808.494 Z" fill="#000000" fill-rule="nonzero" fill-opacity="1" /><path clip-path="url(#clip840)" d="M172.57 782.892 Q168.959 782.892 167.13 786.457 Q165.325 789.998 165.325 797.128 Q165.325 804.234 167.13 807.799 Q168.959 811.341 172.57 811.341 Q176.204 811.341 178.01 807.799 Q179.839 804.234 179.839 797.128 Q179.839 789.998 178.01 786.457 Q176.204 782.892 172.57 782.892 M172.57 779.188 Q178.38 779.188 181.436 783.795 Q184.514 788.378 184.514 797.128 Q184.514 805.855 181.436 810.461 Q178.38 815.045 172.57 815.045 Q166.76 815.045 163.681 810.461 Q160.626 805.855 160.626 797.128 Q160.626 788.378 163.681 783.795 Q166.76 779.188 172.57 779.188 Z" fill="#000000" fill-rule="nonzero" fill-opacity="1" /><path clip-path="url(#clip840)" d="M202.732 782.892 Q199.121 782.892 197.292 786.457 Q195.487 789.998 195.487 797.128 Q195.487 804.234 197.292 807.799 Q199.121 811.341 202.732 811.341 Q206.366 811.341 208.172 807.799 Q210 804.234 210 797.128 Q210 789.998 208.172 786.457 Q206.366 782.892 202.732 782.892 M202.732 779.188 Q208.542 779.188 211.598 783.795 Q214.676 788.378 214.676 797.128 Q214.676 805.855 211.598 810.461 Q208.542 815.045 202.732 815.045 Q196.922 815.045 193.843 810.461 Q190.788 805.855 190.788 797.128 Q190.788 788.378 193.843 783.795 Q196.922 779.188 202.732 779.188 Z" fill="#000000" fill-rule="nonzero" fill-opacity="1" /><path clip-path="url(#clip840)" d="M237.06 795.739 Q240.417 796.457 242.292 798.725 Q244.19 800.994 244.19 804.327 Q244.19 809.443 240.672 812.244 Q237.153 815.045 230.672 815.045 Q228.496 815.045 226.181 814.605 Q223.889 814.188 221.436 813.332 L221.436 808.818 Q223.38 809.952 225.695 810.531 Q228.01 811.109 230.533 811.109 Q234.931 811.109 237.222 809.373 Q239.537 807.637 239.537 804.327 Q239.537 801.272 237.384 799.559 Q235.255 797.822 231.435 797.822 L227.408 797.822 L227.408 793.98 L231.621 793.98 Q235.07 793.98 236.898 792.614 Q238.727 791.225 238.727 788.633 Q238.727 785.971 236.829 784.559 Q234.954 783.123 231.435 783.123 Q229.514 783.123 227.315 783.54 Q225.116 783.957 222.477 784.836 L222.477 780.67 Q225.139 779.929 227.454 779.559 Q229.792 779.188 231.852 779.188 Q237.176 779.188 240.278 781.619 Q243.38 784.026 243.38 788.147 Q243.38 791.017 241.736 793.008 Q240.093 794.975 237.06 795.739 Z" fill="#000000" fill-rule="nonzero" fill-opacity="1" /><path clip-path="url(#clip840)" d="M126.205 574.196 Q122.593 574.196 120.765 577.761 Q118.959 581.303 118.959 588.433 Q118.959 595.539 120.765 599.104 Q122.593 602.645 126.205 602.645 Q129.839 602.645 131.644 599.104 Q133.473 595.539 133.473 588.433 Q133.473 581.303 131.644 577.761 Q129.839 574.196 126.205 574.196 M126.205 570.493 Q132.015 570.493 135.07 575.099 Q138.149 579.683 138.149 588.433 Q138.149 597.159 135.07 601.766 Q132.015 606.349 126.205 606.349 Q120.394 606.349 117.316 601.766 Q114.26 597.159 114.26 588.433 Q114.26 579.683 117.316 575.099 Q120.394 570.493 126.205 570.493 Z" fill="#000000" fill-rule="nonzero" fill-opacity="1" /><path clip-path="url(#clip840)" d="M146.366 599.798 L151.251 599.798 L151.251 605.678 L146.366 605.678 L146.366 599.798 Z" fill="#000000" fill-rule="nonzero" fill-opacity="1" /><path clip-path="url(#clip840)" d="M171.436 574.196 Q167.825 574.196 165.996 577.761 Q164.19 581.303 164.19 588.433 Q164.19 595.539 165.996 599.104 Q167.825 602.645 171.436 602.645 Q175.07 602.645 176.876 599.104 Q178.704 595.539 178.704 588.433 Q178.704 581.303 176.876 577.761 Q175.07 574.196 171.436 574.196 M171.436 570.493 Q177.246 570.493 180.301 575.099 Q183.38 579.683 183.38 588.433 Q183.38 597.159 180.301 601.766 Q177.246 606.349 171.436 606.349 Q165.626 606.349 162.547 601.766 Q159.491 597.159 159.491 588.433 Q159.491 579.683 162.547 575.099 Q165.626 570.493 171.436 570.493 Z" fill="#000000" fill-rule="nonzero" fill-opacity="1" /><path clip-path="url(#clip840)" d="M201.598 574.196 Q197.987 574.196 196.158 577.761 Q194.352 581.303 194.352 588.433 Q194.352 595.539 196.158 599.104 Q197.987 602.645 201.598 602.645 Q205.232 602.645 207.037 599.104 Q208.866 595.539 208.866 588.433 Q208.866 581.303 207.037 577.761 Q205.232 574.196 201.598 574.196 M201.598 570.493 Q207.408 570.493 210.463 575.099 Q213.542 579.683 213.542 588.433 Q213.542 597.159 210.463 601.766 Q207.408 606.349 201.598 606.349 Q195.787 606.349 192.709 601.766 Q189.653 597.159 189.653 588.433 Q189.653 579.683 192.709 575.099 Q195.787 570.493 201.598 570.493 Z" fill="#000000" fill-rule="nonzero" fill-opacity="1" /><path clip-path="url(#clip840)" d="M234.607 575.192 L222.801 593.641 L234.607 593.641 L234.607 575.192 M233.38 571.118 L239.259 571.118 L239.259 593.641 L244.19 593.641 L244.19 597.53 L239.259 597.53 L239.259 605.678 L234.607 605.678 L234.607 597.53 L219.005 597.53 L219.005 593.016 L233.38 571.118 Z" fill="#000000" fill-rule="nonzero" fill-opacity="1" /><path clip-path="url(#clip840)" d="M127.686 365.501 Q124.075 365.501 122.246 369.066 Q120.441 372.607 120.441 379.737 Q120.441 386.843 122.246 390.408 Q124.075 393.95 127.686 393.95 Q131.32 393.95 133.126 390.408 Q134.954 386.843 134.954 379.737 Q134.954 372.607 133.126 369.066 Q131.32 365.501 127.686 365.501 M127.686 361.797 Q133.496 361.797 136.552 366.404 Q139.63 370.987 139.63 379.737 Q139.63 388.464 136.552 393.07 Q133.496 397.654 127.686 397.654 Q121.876 397.654 118.797 393.07 Q115.742 388.464 115.742 379.737 Q115.742 370.987 118.797 366.404 Q121.876 361.797 127.686 361.797 Z" fill="#000000" fill-rule="nonzero" fill-opacity="1" /><path clip-path="url(#clip840)" d="M147.848 391.103 L152.732 391.103 L152.732 396.982 L147.848 396.982 L147.848 391.103 Z" fill="#000000" fill-rule="nonzero" fill-opacity="1" /><path clip-path="url(#clip840)" d="M172.917 365.501 Q169.306 365.501 167.477 369.066 Q165.672 372.607 165.672 379.737 Q165.672 386.843 167.477 390.408 Q169.306 393.95 172.917 393.95 Q176.551 393.95 178.357 390.408 Q180.186 386.843 180.186 379.737 Q180.186 372.607 178.357 369.066 Q176.551 365.501 172.917 365.501 M172.917 361.797 Q178.727 361.797 181.783 366.404 Q184.862 370.987 184.862 379.737 Q184.862 388.464 181.783 393.07 Q178.727 397.654 172.917 397.654 Q167.107 397.654 164.028 393.07 Q160.973 388.464 160.973 379.737 Q160.973 370.987 164.028 366.404 Q167.107 361.797 172.917 361.797 Z" fill="#000000" fill-rule="nonzero" fill-opacity="1" /><path clip-path="url(#clip840)" d="M203.079 365.501 Q199.468 365.501 197.639 369.066 Q195.834 372.607 195.834 379.737 Q195.834 386.843 197.639 390.408 Q199.468 393.95 203.079 393.95 Q206.713 393.95 208.519 390.408 Q210.348 386.843 210.348 379.737 Q210.348 372.607 208.519 369.066 Q206.713 365.501 203.079 365.501 M203.079 361.797 Q208.889 361.797 211.945 366.404 Q215.024 370.987 215.024 379.737 Q215.024 388.464 211.945 393.07 Q208.889 397.654 203.079 397.654 Q197.269 397.654 194.19 393.07 Q191.135 388.464 191.135 379.737 Q191.135 370.987 194.19 366.404 Q197.269 361.797 203.079 361.797 Z" fill="#000000" fill-rule="nonzero" fill-opacity="1" /><path clip-path="url(#clip840)" d="M223.287 362.422 L241.644 362.422 L241.644 366.357 L227.57 366.357 L227.57 374.83 Q228.588 374.482 229.607 374.32 Q230.625 374.135 231.644 374.135 Q237.431 374.135 240.81 377.306 Q244.19 380.478 244.19 385.894 Q244.19 391.473 240.718 394.575 Q237.246 397.654 230.926 397.654 Q228.75 397.654 226.482 397.283 Q224.236 396.913 221.829 396.172 L221.829 391.473 Q223.912 392.607 226.135 393.163 Q228.357 393.718 230.834 393.718 Q234.838 393.718 237.176 391.612 Q239.514 389.505 239.514 385.894 Q239.514 382.283 237.176 380.177 Q234.838 378.07 230.834 378.07 Q228.959 378.07 227.084 378.487 Q225.232 378.904 223.287 379.783 L223.287 362.422 Z" fill="#000000" fill-rule="nonzero" fill-opacity="1" /><path clip-path="url(#clip840)" d="M126.529 156.805 Q122.918 156.805 121.089 160.37 Q119.283 163.912 119.283 171.042 Q119.283 178.148 121.089 181.713 Q122.918 185.254 126.529 185.254 Q130.163 185.254 131.968 181.713 Q133.797 178.148 133.797 171.042 Q133.797 163.912 131.968 160.37 Q130.163 156.805 126.529 156.805 M126.529 153.102 Q132.339 153.102 135.394 157.708 Q138.473 162.292 138.473 171.042 Q138.473 179.768 135.394 184.375 Q132.339 188.958 126.529 188.958 Q120.718 188.958 117.64 184.375 Q114.584 179.768 114.584 171.042 Q114.584 162.292 117.64 157.708 Q120.718 153.102 126.529 153.102 Z" fill="#000000" fill-rule="nonzero" fill-opacity="1" /><path clip-path="url(#clip840)" d="M146.691 182.407 L151.575 182.407 L151.575 188.287 L146.691 188.287 L146.691 182.407 Z" fill="#000000" fill-rule="nonzero" fill-opacity="1" /><path clip-path="url(#clip840)" d="M171.76 156.805 Q168.149 156.805 166.32 160.37 Q164.515 163.912 164.515 171.042 Q164.515 178.148 166.32 181.713 Q168.149 185.254 171.76 185.254 Q175.394 185.254 177.2 181.713 Q179.028 178.148 179.028 171.042 Q179.028 163.912 177.2 160.37 Q175.394 156.805 171.76 156.805 M171.76 153.102 Q177.57 153.102 180.626 157.708 Q183.704 162.292 183.704 171.042 Q183.704 179.768 180.626 184.375 Q177.57 188.958 171.76 188.958 Q165.95 188.958 162.871 184.375 Q159.815 179.768 159.815 171.042 Q159.815 162.292 162.871 157.708 Q165.95 153.102 171.76 153.102 Z" fill="#000000" fill-rule="nonzero" fill-opacity="1" /><path clip-path="url(#clip840)" d="M201.922 156.805 Q198.311 156.805 196.482 160.37 Q194.676 163.912 194.676 171.042 Q194.676 178.148 196.482 181.713 Q198.311 185.254 201.922 185.254 Q205.556 185.254 207.362 181.713 Q209.19 178.148 209.19 171.042 Q209.19 163.912 207.362 160.37 Q205.556 156.805 201.922 156.805 M201.922 153.102 Q207.732 153.102 210.787 157.708 Q213.866 162.292 213.866 171.042 Q213.866 179.768 210.787 184.375 Q207.732 188.958 201.922 188.958 Q196.112 188.958 193.033 184.375 Q189.977 179.768 189.977 171.042 Q189.977 162.292 193.033 157.708 Q196.112 153.102 201.922 153.102 Z" fill="#000000" fill-rule="nonzero" fill-opacity="1" /><path clip-path="url(#clip840)" d="M232.662 169.143 Q229.514 169.143 227.662 171.296 Q225.834 173.449 225.834 177.199 Q225.834 180.926 227.662 183.102 Q229.514 185.254 232.662 185.254 Q235.81 185.254 237.639 183.102 Q239.491 180.926 239.491 177.199 Q239.491 173.449 237.639 171.296 Q235.81 169.143 232.662 169.143 M241.945 154.491 L241.945 158.75 Q240.185 157.917 238.38 157.477 Q236.597 157.037 234.838 157.037 Q230.209 157.037 227.755 160.162 Q225.324 163.287 224.977 169.606 Q226.343 167.592 228.403 166.528 Q230.463 165.44 232.94 165.44 Q238.148 165.44 241.158 168.611 Q244.19 171.759 244.19 177.199 Q244.19 182.523 241.042 185.741 Q237.894 188.958 232.662 188.958 Q226.667 188.958 223.496 184.375 Q220.324 179.768 220.324 171.042 Q220.324 162.847 224.213 157.986 Q228.102 153.102 234.653 153.102 Q236.412 153.102 238.195 153.449 Q240 153.796 241.945 154.491 Z" fill="#000000" fill-rule="nonzero" fill-opacity="1" /><path clip-path="url(#clip840)" d="M21.7677 1031.17 L39.6235 1031.17 L39.6235 1023.09 Q39.6235 1018.6 37.3 1016.15 Q34.9765 1013.7 30.6797 1013.7 Q26.4147 1013.7 24.0912 1016.15 Q21.7677 1018.6 21.7677 1023.09 L21.7677 1031.17 M16.4842 1037.6 L16.4842 1023.09 Q16.4842 1015.1 20.1126 1011.02 Q23.7092 1006.92 30.6797 1006.92 Q37.7138 1006.92 41.3104 1011.02 Q44.907 1015.1 44.907 1023.09 L44.907 1031.17 L64.0042 1031.17 L64.0042 1037.6 L16.4842 1037.6 Z" fill="#000000" fill-rule="nonzero" fill-opacity="1" /><path clip-path="url(#clip840)" d="M33.8307 979.034 Q33.2578 980.021 33.0032 981.199 Q32.7167 982.345 32.7167 983.745 Q32.7167 988.71 35.9632 991.384 Q39.1779 994.026 45.2253 994.026 L64.0042 994.026 L64.0042 999.914 L28.3562 999.914 L28.3562 994.026 L33.8944 994.026 Q30.6479 992.18 29.0883 989.22 Q27.4968 986.26 27.4968 982.026 Q27.4968 981.422 27.5923 980.69 Q27.656 979.957 27.8151 979.066 L33.8307 979.034 Z" fill="#000000" fill-rule="nonzero" fill-opacity="1" /><path clip-path="url(#clip840)" d="M32.4621 960.51 Q32.4621 965.221 36.1542 967.958 Q39.8145 970.695 46.212 970.695 Q52.6095 970.695 56.3017 967.99 Q59.9619 965.253 59.9619 960.51 Q59.9619 955.831 56.2698 953.094 Q52.5777 950.357 46.212 950.357 Q39.8781 950.357 36.186 953.094 Q32.4621 955.831 32.4621 960.51 M27.4968 960.51 Q27.4968 952.871 32.4621 948.511 Q37.4273 944.15 46.212 944.15 Q54.9649 944.15 59.9619 948.511 Q64.9272 952.871 64.9272 960.51 Q64.9272 968.181 59.9619 972.541 Q54.9649 976.87 46.212 976.87 Q37.4273 976.87 32.4621 972.541 Q27.4968 968.181 27.4968 960.51 Z" fill="#000000" fill-rule="nonzero" fill-opacity="1" /><path clip-path="url(#clip840)" d="M46.212 908.853 Q39.7508 908.853 36.0905 911.526 Q32.3984 914.168 32.3984 918.815 Q32.3984 923.462 36.0905 926.135 Q39.7508 928.777 46.212 928.777 Q52.6732 928.777 56.3653 926.135 Q60.0256 923.462 60.0256 918.815 Q60.0256 914.168 56.3653 911.526 Q52.6732 908.853 46.212 908.853 M33.7671 928.777 Q30.5842 926.931 29.0564 924.13 Q27.4968 921.297 27.4968 917.383 Q27.4968 910.89 32.6531 906.847 Q37.8093 902.773 46.212 902.773 Q54.6147 902.773 59.771 906.847 Q64.9272 910.89 64.9272 917.383 Q64.9272 921.297 63.3994 924.13 Q61.8398 926.931 58.657 928.777 L64.0042 928.777 L64.0042 934.665 L14.479 934.665 L14.479 928.777 L33.7671 928.777 Z" fill="#000000" fill-rule="nonzero" fill-opacity="1" /><path clip-path="url(#clip840)" d="M46.0847 876.865 Q46.0847 883.963 47.7079 886.7 Q49.3312 889.437 53.2461 889.437 Q56.3653 889.437 58.2114 887.4 Q60.0256 885.331 60.0256 881.798 Q60.0256 876.929 56.5881 874 Q53.1188 871.04 47.3897 871.04 L46.0847 871.04 L46.0847 876.865 M43.6657 865.184 L64.0042 865.184 L64.0042 871.04 L58.5933 871.04 Q61.8398 873.045 63.3994 876.037 Q64.9272 879.029 64.9272 883.358 Q64.9272 888.832 61.8716 892.079 Q58.7843 895.294 53.6281 895.294 Q47.6125 895.294 44.5569 891.283 Q41.5014 887.241 41.5014 879.252 L41.5014 871.04 L40.9285 871.04 Q36.8862 871.04 34.6901 873.714 Q32.4621 876.356 32.4621 881.162 Q32.4621 884.217 33.1941 887.114 Q33.9262 890.01 35.3903 892.684 L29.9795 892.684 Q28.7381 889.469 28.1334 886.445 Q27.4968 883.422 27.4968 880.557 Q27.4968 872.823 31.5072 869.003 Q35.5176 865.184 43.6657 865.184 Z" fill="#000000" fill-rule="nonzero" fill-opacity="1" /><path clip-path="url(#clip840)" d="M46.212 827.531 Q39.7508 827.531 36.0905 830.204 Q32.3984 832.846 32.3984 837.493 Q32.3984 842.14 36.0905 844.814 Q39.7508 847.455 46.212 847.455 Q52.6732 847.455 56.3653 844.814 Q60.0256 842.14 60.0256 837.493 Q60.0256 832.846 56.3653 830.204 Q52.6732 827.531 46.212 827.531 M33.7671 847.455 Q30.5842 845.609 29.0564 842.808 Q27.4968 839.976 27.4968 836.061 Q27.4968 829.568 32.6531 825.525 Q37.8093 821.451 46.212 821.451 Q54.6147 821.451 59.771 825.525 Q64.9272 829.568 64.9272 836.061 Q64.9272 839.976 63.3994 842.808 Q61.8398 845.609 58.657 847.455 L64.0042 847.455 L64.0042 853.344 L14.479 853.344 L14.479 847.455 L33.7671 847.455 Z" fill="#000000" fill-rule="nonzero" fill-opacity="1" /><path clip-path="url(#clip840)" d="M28.3562 811.744 L28.3562 805.887 L64.0042 805.887 L64.0042 811.744 L28.3562 811.744 M14.479 811.744 L14.479 805.887 L21.895 805.887 L21.895 811.744 L14.479 811.744 Z" fill="#000000" fill-rule="nonzero" fill-opacity="1" /><path clip-path="url(#clip840)" d="M14.479 793.633 L14.479 787.777 L64.0042 787.777 L64.0042 793.633 L14.479 793.633 Z" fill="#000000" fill-rule="nonzero" fill-opacity="1" /><path clip-path="url(#clip840)" d="M28.3562 775.523 L28.3562 769.666 L64.0042 769.666 L64.0042 775.523 L28.3562 775.523 M14.479 775.523 L14.479 769.666 L21.895 769.666 L21.895 775.523 L14.479 775.523 Z" fill="#000000" fill-rule="nonzero" fill-opacity="1" /><path clip-path="url(#clip840)" d="M18.2347 751.62 L28.3562 751.62 L28.3562 739.557 L32.9077 739.557 L32.9077 751.62 L52.2594 751.62 Q56.6199 751.62 57.8613 750.442 Q59.1026 749.232 59.1026 745.572 L59.1026 739.557 L64.0042 739.557 L64.0042 745.572 Q64.0042 752.352 61.4897 754.93 Q58.9434 757.508 52.2594 757.508 L32.9077 757.508 L32.9077 761.805 L28.3562 761.805 L28.3562 757.508 L18.2347 757.508 L18.2347 751.62 Z" fill="#000000" fill-rule="nonzero" fill-opacity="1" /><path clip-path="url(#clip840)" d="M67.3143 717.022 Q73.68 719.505 75.6216 721.86 Q77.5631 724.215 77.5631 728.162 L77.5631 732.841 L72.6615 732.841 L72.6615 729.403 Q72.6615 726.984 71.5157 725.647 Q70.3699 724.311 66.1048 722.687 L63.4312 721.637 L28.3562 736.055 L28.3562 729.849 L56.238 718.709 L28.3562 707.569 L28.3562 701.362 L67.3143 717.022 Z" fill="#000000" fill-rule="nonzero" fill-opacity="1" /><path clip-path="url(#clip840)" d="M21.7677 665.874 L58.7206 665.874 L58.7206 658.107 Q58.7206 648.272 54.2646 643.721 Q49.8086 639.138 40.1964 639.138 Q30.6479 639.138 26.2237 643.721 Q21.7677 648.272 21.7677 658.107 L21.7677 665.874 M16.4842 672.303 L16.4842 659.094 Q16.4842 645.28 22.2451 638.819 Q27.9743 632.358 40.1964 632.358 Q52.4822 632.358 58.2432 638.851 Q64.0042 645.344 64.0042 659.094 L64.0042 672.303 L16.4842 672.303 Z" fill="#000000" fill-rule="nonzero" fill-opacity="1" /><path clip-path="url(#clip840)" d="M44.7161 591.872 L47.5806 591.872 L47.5806 618.799 Q53.6281 618.417 56.8109 615.171 Q59.9619 611.892 59.9619 606.068 Q59.9619 602.694 59.1344 599.543 Q58.3069 596.36 56.6518 593.241 L62.1899 593.241 Q63.5267 596.392 64.227 599.702 Q64.9272 603.012 64.9272 606.418 Q64.9272 614.948 59.9619 619.945 Q54.9967 624.91 46.5303 624.91 Q37.7774 624.91 32.6531 620.2 Q27.4968 615.457 27.4968 607.436 Q27.4968 600.243 32.1438 596.074 Q36.7589 591.872 44.7161 591.872 M42.9973 597.729 Q38.1912 597.792 35.3266 600.434 Q32.4621 603.044 32.4621 607.373 Q32.4621 612.274 35.2312 615.234 Q38.0002 618.163 43.0292 618.608 L42.9973 597.729 Z" fill="#000000" fill-rule="nonzero" fill-opacity="1" /><path clip-path="url(#clip840)" d="M42.4881 552.628 L64.0042 552.628 L64.0042 558.484 L42.679 558.484 Q37.6183 558.484 35.1038 560.457 Q32.5894 562.431 32.5894 566.378 Q32.5894 571.12 35.6131 573.857 Q38.6368 576.594 43.8567 576.594 L64.0042 576.594 L64.0042 582.483 L28.3562 582.483 L28.3562 576.594 L33.8944 576.594 Q30.6797 574.494 29.0883 571.661 Q27.4968 568.796 27.4968 565.073 Q27.4968 558.93 31.3163 555.779 Q35.1038 552.628 42.4881 552.628 Z" fill="#000000" fill-rule="nonzero" fill-opacity="1" /><path clip-path="url(#clip840)" d="M29.4065 518.221 L34.9447 518.221 Q33.6716 520.704 33.035 523.377 Q32.3984 526.051 32.3984 528.915 Q32.3984 533.276 33.7352 535.472 Q35.072 537.636 37.7456 537.636 Q39.7826 537.636 40.9603 536.077 Q42.1061 534.517 43.1565 529.807 L43.6021 527.801 Q44.9389 521.563 47.3897 518.953 Q49.8086 516.311 54.1691 516.311 Q59.1344 516.311 62.0308 520.258 Q64.9272 524.173 64.9272 531.048 Q64.9272 533.912 64.3543 537.032 Q63.8132 540.119 62.6992 543.556 L56.6518 543.556 Q58.3387 540.31 59.198 537.159 Q60.0256 534.008 60.0256 530.921 Q60.0256 526.783 58.6251 524.555 Q57.1929 522.327 54.6147 522.327 Q52.2276 522.327 50.9545 523.95 Q49.6813 525.542 48.5037 530.984 L48.0262 533.021 Q46.8804 538.464 44.5251 540.883 Q42.138 543.302 38.0002 543.302 Q32.9713 543.302 30.2341 539.737 Q27.4968 536.172 27.4968 529.616 Q27.4968 526.369 27.9743 523.504 Q28.4517 520.64 29.4065 518.221 Z" fill="#000000" fill-rule="nonzero" fill-opacity="1" /><path clip-path="url(#clip840)" d="M28.3562 506.985 L28.3562 501.129 L64.0042 501.129 L64.0042 506.985 L28.3562 506.985 M14.479 506.985 L14.479 501.129 L21.895 501.129 L21.895 506.985 L14.479 506.985 Z" fill="#000000" fill-rule="nonzero" fill-opacity="1" /><path clip-path="url(#clip840)" d="M18.2347 483.082 L28.3562 483.082 L28.3562 471.019 L32.9077 471.019 L32.9077 483.082 L52.2594 483.082 Q56.6199 483.082 57.8613 481.905 Q59.1026 480.695 59.1026 477.035 L59.1026 471.019 L64.0042 471.019 L64.0042 477.035 Q64.0042 483.814 61.4897 486.392 Q58.9434 488.971 52.2594 488.971 L32.9077 488.971 L32.9077 493.267 L28.3562 493.267 L28.3562 488.971 L18.2347 488.971 L18.2347 483.082 Z" fill="#000000" fill-rule="nonzero" fill-opacity="1" /><path clip-path="url(#clip840)" d="M67.3143 448.485 Q73.68 450.967 75.6216 453.323 Q77.5631 455.678 77.5631 459.625 L77.5631 464.303 L72.6615 464.303 L72.6615 460.866 Q72.6615 458.447 71.5157 457.11 Q70.3699 455.773 66.1048 454.15 L63.4312 453.1 L28.3562 467.518 L28.3562 461.312 L56.238 450.172 L28.3562 439.032 L28.3562 432.825 L67.3143 448.485 Z" fill="#000000" fill-rule="nonzero" fill-opacity="1" /><path clip-path="url(#clip842)" d="M280.19 87.3199 L280.19 1423.18 L321.721 1423.18 L321.721 87.3199 L280.19 87.3199 L280.19 87.3199  Z" fill="#00008b" fill-rule="evenodd" fill-opacity="0.5"/>
<polyline clip-path="url(#clip842)" style="stroke:#000000; stroke-linecap:round; stroke-linejoin:round; stroke-width:4; stroke-opacity:0.1; fill:none" points="280.19,87.3199 280.19,1423.18 321.721,1423.18 321.721,87.3199 280.19,87.3199 "/>
<path clip-path="url(#clip842)" d="M321.721 242.589 L321.721 1423.18 L363.251 1423.18 L363.251 242.589 L321.721 242.589 L321.721 242.589  Z" fill="#00008b" fill-rule="evenodd" fill-opacity="0.5"/>
<polyline clip-path="url(#clip842)" style="stroke:#000000; stroke-linecap:round; stroke-linejoin:round; stroke-width:4; stroke-opacity:0.1; fill:none" points="321.721,242.589 321.721,1423.18 363.251,1423.18 363.251,242.589 321.721,242.589 "/>
<path clip-path="url(#clip842)" d="M363.251 196.259 L363.251 1423.18 L404.782 1423.18 L404.782 196.259 L363.251 196.259 L363.251 196.259  Z" fill="#00008b" fill-rule="evenodd" fill-opacity="0.5"/>
<polyline clip-path="url(#clip842)" style="stroke:#000000; stroke-linecap:round; stroke-linejoin:round; stroke-width:4; stroke-opacity:0.1; fill:none" points="363.251,196.259 363.251,1423.18 404.782,1423.18 404.782,196.259 363.251,196.259 "/>
<path clip-path="url(#clip842)" d="M404.782 249.476 L404.782 1423.18 L446.312 1423.18 L446.312 249.476 L404.782 249.476 L404.782 249.476  Z" fill="#00008b" fill-rule="evenodd" fill-opacity="0.5"/>
<polyline clip-path="url(#clip842)" style="stroke:#000000; stroke-linecap:round; stroke-linejoin:round; stroke-width:4; stroke-opacity:0.1; fill:none" points="404.782,249.476 404.782,1423.18 446.312,1423.18 446.312,249.476 404.782,249.476 "/>
<path clip-path="url(#clip842)" d="M446.312 189.998 L446.312 1423.18 L487.843 1423.18 L487.843 189.998 L446.312 189.998 L446.312 189.998  Z" fill="#00008b" fill-rule="evenodd" fill-opacity="0.5"/>
<polyline clip-path="url(#clip842)" style="stroke:#000000; stroke-linecap:round; stroke-linejoin:round; stroke-width:4; stroke-opacity:0.1; fill:none" points="446.312,189.998 446.312,1423.18 487.843,1423.18 487.843,189.998 446.312,189.998 "/>
<path clip-path="url(#clip842)" d="M487.843 330.45 L487.843 1423.18 L529.373 1423.18 L529.373 330.45 L487.843 330.45 L487.843 330.45  Z" fill="#00008b" fill-rule="evenodd" fill-opacity="0.5"/>
<polyline clip-path="url(#clip842)" style="stroke:#000000; stroke-linecap:round; stroke-linejoin:round; stroke-width:4; stroke-opacity:0.1; fill:none" points="487.843,330.45 487.843,1423.18 529.373,1423.18 529.373,330.45 487.843,330.45 "/>
<path clip-path="url(#clip842)" d="M529.373 411.841 L529.373 1423.18 L570.904 1423.18 L570.904 411.841 L529.373 411.841 L529.373 411.841  Z" fill="#00008b" fill-rule="evenodd" fill-opacity="0.5"/>
<polyline clip-path="url(#clip842)" style="stroke:#000000; stroke-linecap:round; stroke-linejoin:round; stroke-width:4; stroke-opacity:0.1; fill:none" points="529.373,411.841 529.373,1423.18 570.904,1423.18 570.904,411.841 529.373,411.841 "/>
<path clip-path="url(#clip842)" d="M570.904 539.563 L570.904 1423.18 L612.434 1423.18 L612.434 539.563 L570.904 539.563 L570.904 539.563  Z" fill="#00008b" fill-rule="evenodd" fill-opacity="0.5"/>
<polyline clip-path="url(#clip842)" style="stroke:#000000; stroke-linecap:round; stroke-linejoin:round; stroke-width:4; stroke-opacity:0.1; fill:none" points="570.904,539.563 570.904,1423.18 612.434,1423.18 612.434,539.563 570.904,539.563 "/>
<path clip-path="url(#clip842)" d="M612.434 459.841 L612.434 1423.18 L653.965 1423.18 L653.965 459.841 L612.434 459.841 L612.434 459.841  Z" fill="#00008b" fill-rule="evenodd" fill-opacity="0.5"/>
<polyline clip-path="url(#clip842)" style="stroke:#000000; stroke-linecap:round; stroke-linejoin:round; stroke-width:4; stroke-opacity:0.1; fill:none" points="612.434,459.841 612.434,1423.18 653.965,1423.18 653.965,459.841 612.434,459.841 "/>
<path clip-path="url(#clip842)" d="M653.965 602.38 L653.965 1423.18 L695.496 1423.18 L695.496 602.38 L653.965 602.38 L653.965 602.38  Z" fill="#00008b" fill-rule="evenodd" fill-opacity="0.5"/>
<polyline clip-path="url(#clip842)" style="stroke:#000000; stroke-linecap:round; stroke-linejoin:round; stroke-width:4; stroke-opacity:0.1; fill:none" points="653.965,602.38 653.965,1423.18 695.496,1423.18 695.496,602.38 653.965,602.38 "/>
<path clip-path="url(#clip842)" d="M695.496 617.615 L695.496 1423.18 L737.026 1423.18 L737.026 617.615 L695.496 617.615 L695.496 617.615  Z" fill="#00008b" fill-rule="evenodd" fill-opacity="0.5"/>
<polyline clip-path="url(#clip842)" style="stroke:#000000; stroke-linecap:round; stroke-linejoin:round; stroke-width:4; stroke-opacity:0.1; fill:none" points="695.496,617.615 695.496,1423.18 737.026,1423.18 737.026,617.615 695.496,617.615 "/>
<path clip-path="url(#clip842)" d="M737.026 714.867 L737.026 1423.18 L778.557 1423.18 L778.557 714.867 L737.026 714.867 L737.026 714.867  Z" fill="#00008b" fill-rule="evenodd" fill-opacity="0.5"/>
<polyline clip-path="url(#clip842)" style="stroke:#000000; stroke-linecap:round; stroke-linejoin:round; stroke-width:4; stroke-opacity:0.1; fill:none" points="737.026,714.867 737.026,1423.18 778.557,1423.18 778.557,714.867 737.026,714.867 "/>
<path clip-path="url(#clip842)" d="M778.557 742.624 L778.557 1423.18 L820.087 1423.18 L820.087 742.624 L778.557 742.624 L778.557 742.624  Z" fill="#00008b" fill-rule="evenodd" fill-opacity="0.5"/>
<polyline clip-path="url(#clip842)" style="stroke:#000000; stroke-linecap:round; stroke-linejoin:round; stroke-width:4; stroke-opacity:0.1; fill:none" points="778.557,742.624 778.557,1423.18 820.087,1423.18 820.087,742.624 778.557,742.624 "/>
<path clip-path="url(#clip842)" d="M820.087 763.702 L820.087 1423.18 L861.618 1423.18 L861.618 763.702 L820.087 763.702 L820.087 763.702  Z" fill="#00008b" fill-rule="evenodd" fill-opacity="0.5"/>
<polyline clip-path="url(#clip842)" style="stroke:#000000; stroke-linecap:round; stroke-linejoin:round; stroke-width:4; stroke-opacity:0.1; fill:none" points="820.087,763.702 820.087,1423.18 861.618,1423.18 861.618,763.702 820.087,763.702 "/>
<path clip-path="url(#clip842)" d="M861.618 756.189 L861.618 1423.18 L903.148 1423.18 L903.148 756.189 L861.618 756.189 L861.618 756.189  Z" fill="#00008b" fill-rule="evenodd" fill-opacity="0.5"/>
<polyline clip-path="url(#clip842)" style="stroke:#000000; stroke-linecap:round; stroke-linejoin:round; stroke-width:4; stroke-opacity:0.1; fill:none" points="861.618,756.189 861.618,1423.18 903.148,1423.18 903.148,756.189 861.618,756.189 "/>
<path clip-path="url(#clip842)" d="M903.148 844.676 L903.148 1423.18 L944.679 1423.18 L944.679 844.676 L903.148 844.676 L903.148 844.676  Z" fill="#00008b" fill-rule="evenodd" fill-opacity="0.5"/>
<polyline clip-path="url(#clip842)" style="stroke:#000000; stroke-linecap:round; stroke-linejoin:round; stroke-width:4; stroke-opacity:0.1; fill:none" points="903.148,844.676 903.148,1423.18 944.679,1423.18 944.679,844.676 903.148,844.676 "/>
<path clip-path="url(#clip842)" d="M944.679 810.867 L944.679 1423.18 L986.21 1423.18 L986.21 810.867 L944.679 810.867 L944.679 810.867  Z" fill="#00008b" fill-rule="evenodd" fill-opacity="0.5"/>
<polyline clip-path="url(#clip842)" style="stroke:#000000; stroke-linecap:round; stroke-linejoin:round; stroke-width:4; stroke-opacity:0.1; fill:none" points="944.679,810.867 944.679,1423.18 986.21,1423.18 986.21,810.867 944.679,810.867 "/>
<path clip-path="url(#clip842)" d="M986.21 852.606 L986.21 1423.18 L1027.74 1423.18 L1027.74 852.606 L986.21 852.606 L986.21 852.606  Z" fill="#00008b" fill-rule="evenodd" fill-opacity="0.5"/>
<polyline clip-path="url(#clip842)" style="stroke:#000000; stroke-linecap:round; stroke-linejoin:round; stroke-width:4; stroke-opacity:0.1; fill:none" points="986.21,852.606 986.21,1423.18 1027.74,1423.18 1027.74,852.606 986.21,852.606 "/>
<path clip-path="url(#clip842)" d="M1027.74 960.711 L1027.74 1423.18 L1069.27 1423.18 L1069.27 960.711 L1027.74 960.711 L1027.74 960.711  Z" fill="#00008b" fill-rule="evenodd" fill-opacity="0.5"/>
<polyline clip-path="url(#clip842)" style="stroke:#000000; stroke-linecap:round; stroke-linejoin:round; stroke-width:4; stroke-opacity:0.1; fill:none" points="1027.74,960.711 1027.74,1423.18 1069.27,1423.18 1069.27,960.711 1027.74,960.711 "/>
<path clip-path="url(#clip842)" d="M1069.27 1080.08 L1069.27 1423.18 L1110.8 1423.18 L1110.8 1080.08 L1069.27 1080.08 L1069.27 1080.08  Z" fill="#00008b" fill-rule="evenodd" fill-opacity="0.5"/>
<polyline clip-path="url(#clip842)" style="stroke:#000000; stroke-linecap:round; stroke-linejoin:round; stroke-width:4; stroke-opacity:0.1; fill:none" points="1069.27,1080.08 1069.27,1423.18 1110.8,1423.18 1110.8,1080.08 1069.27,1080.08 "/>
<path clip-path="url(#clip842)" d="M1110.8 1048.15 L1110.8 1423.18 L1152.33 1423.18 L1152.33 1048.15 L1110.8 1048.15 L1110.8 1048.15  Z" fill="#00008b" fill-rule="evenodd" fill-opacity="0.5"/>
<polyline clip-path="url(#clip842)" style="stroke:#000000; stroke-linecap:round; stroke-linejoin:round; stroke-width:4; stroke-opacity:0.1; fill:none" points="1110.8,1048.15 1110.8,1423.18 1152.33,1423.18 1152.33,1048.15 1110.8,1048.15 "/>
<path clip-path="url(#clip842)" d="M1152.33 1006.21 L1152.33 1423.18 L1193.86 1423.18 L1193.86 1006.21 L1152.33 1006.21 L1152.33 1006.21  Z" fill="#00008b" fill-rule="evenodd" fill-opacity="0.5"/>
<polyline clip-path="url(#clip842)" style="stroke:#000000; stroke-linecap:round; stroke-linejoin:round; stroke-width:4; stroke-opacity:0.1; fill:none" points="1152.33,1006.21 1152.33,1423.18 1193.86,1423.18 1193.86,1006.21 1152.33,1006.21 "/>
<path clip-path="url(#clip842)" d="M1193.86 1102.21 L1193.86 1423.18 L1235.39 1423.18 L1235.39 1102.21 L1193.86 1102.21 L1193.86 1102.21  Z" fill="#00008b" fill-rule="evenodd" fill-opacity="0.5"/>
<polyline clip-path="url(#clip842)" style="stroke:#000000; stroke-linecap:round; stroke-linejoin:round; stroke-width:4; stroke-opacity:0.1; fill:none" points="1193.86,1102.21 1193.86,1423.18 1235.39,1423.18 1235.39,1102.21 1193.86,1102.21 "/>
<path clip-path="url(#clip842)" d="M1235.39 1110.14 L1235.39 1423.18 L1276.92 1423.18 L1276.92 1110.14 L1235.39 1110.14 L1235.39 1110.14  Z" fill="#00008b" fill-rule="evenodd" fill-opacity="0.5"/>
<polyline clip-path="url(#clip842)" style="stroke:#000000; stroke-linecap:round; stroke-linejoin:round; stroke-width:4; stroke-opacity:0.1; fill:none" points="1235.39,1110.14 1235.39,1423.18 1276.92,1423.18 1276.92,1110.14 1235.39,1110.14 "/>
<path clip-path="url(#clip842)" d="M1276.92 1090.52 L1276.92 1423.18 L1318.45 1423.18 L1318.45 1090.52 L1276.92 1090.52 L1276.92 1090.52  Z" fill="#00008b" fill-rule="evenodd" fill-opacity="0.5"/>
<polyline clip-path="url(#clip842)" style="stroke:#000000; stroke-linecap:round; stroke-linejoin:round; stroke-width:4; stroke-opacity:0.1; fill:none" points="1276.92,1090.52 1276.92,1423.18 1318.45,1423.18 1318.45,1090.52 1276.92,1090.52 "/>
<path clip-path="url(#clip842)" d="M1318.45 1142.07 L1318.45 1423.18 L1359.98 1423.18 L1359.98 1142.07 L1318.45 1142.07 L1318.45 1142.07  Z" fill="#00008b" fill-rule="evenodd" fill-opacity="0.5"/>
<polyline clip-path="url(#clip842)" style="stroke:#000000; stroke-linecap:round; stroke-linejoin:round; stroke-width:4; stroke-opacity:0.1; fill:none" points="1318.45,1142.07 1318.45,1423.18 1359.98,1423.18 1359.98,1142.07 1318.45,1142.07 "/>
<path clip-path="url(#clip842)" d="M1359.98 1165.86 L1359.98 1423.18 L1401.52 1423.18 L1401.52 1165.86 L1359.98 1165.86 L1359.98 1165.86  Z" fill="#00008b" fill-rule="evenodd" fill-opacity="0.5"/>
<polyline clip-path="url(#clip842)" style="stroke:#000000; stroke-linecap:round; stroke-linejoin:round; stroke-width:4; stroke-opacity:0.1; fill:none" points="1359.98,1165.86 1359.98,1423.18 1401.52,1423.18 1401.52,1165.86 1359.98,1165.86 "/>
<path clip-path="url(#clip842)" d="M1401.52 1233.48 L1401.52 1423.18 L1443.05 1423.18 L1443.05 1233.48 L1401.52 1233.48 L1401.52 1233.48  Z" fill="#00008b" fill-rule="evenodd" fill-opacity="0.5"/>
<polyline clip-path="url(#clip842)" style="stroke:#000000; stroke-linecap:round; stroke-linejoin:round; stroke-width:4; stroke-opacity:0.1; fill:none" points="1401.52,1233.48 1401.52,1423.18 1443.05,1423.18 1443.05,1233.48 1401.52,1233.48 "/>
<path clip-path="url(#clip842)" d="M1443.05 1223.67 L1443.05 1423.18 L1484.58 1423.18 L1484.58 1223.67 L1443.05 1223.67 L1443.05 1223.67  Z" fill="#00008b" fill-rule="evenodd" fill-opacity="0.5"/>
<polyline clip-path="url(#clip842)" style="stroke:#000000; stroke-linecap:round; stroke-linejoin:round; stroke-width:4; stroke-opacity:0.1; fill:none" points="1443.05,1223.67 1443.05,1423.18 1484.58,1423.18 1484.58,1223.67 1443.05,1223.67 "/>
<path clip-path="url(#clip842)" d="M1484.58 1243.08 L1484.58 1423.18 L1526.11 1423.18 L1526.11 1243.08 L1484.58 1243.08 L1484.58 1243.08  Z" fill="#00008b" fill-rule="evenodd" fill-opacity="0.5"/>
<polyline clip-path="url(#clip842)" style="stroke:#000000; stroke-linecap:round; stroke-linejoin:round; stroke-width:4; stroke-opacity:0.1; fill:none" points="1484.58,1243.08 1484.58,1423.18 1526.11,1423.18 1526.11,1243.08 1484.58,1243.08 "/>
<path clip-path="url(#clip842)" d="M1526.11 1310.07 L1526.11 1423.18 L1567.64 1423.18 L1567.64 1310.07 L1526.11 1310.07 L1526.11 1310.07  Z" fill="#00008b" fill-rule="evenodd" fill-opacity="0.5"/>
<polyline clip-path="url(#clip842)" style="stroke:#000000; stroke-linecap:round; stroke-linejoin:round; stroke-width:4; stroke-opacity:0.1; fill:none" points="1526.11,1310.07 1526.11,1423.18 1567.64,1423.18 1567.64,1310.07 1526.11,1310.07 "/>
<path clip-path="url(#clip842)" d="M1567.64 1309.65 L1567.64 1423.18 L1609.17 1423.18 L1609.17 1309.65 L1567.64 1309.65 L1567.64 1309.65  Z" fill="#00008b" fill-rule="evenodd" fill-opacity="0.5"/>
<polyline clip-path="url(#clip842)" style="stroke:#000000; stroke-linecap:round; stroke-linejoin:round; stroke-width:4; stroke-opacity:0.1; fill:none" points="1567.64,1309.65 1567.64,1423.18 1609.17,1423.18 1609.17,1309.65 1567.64,1309.65 "/>
<path clip-path="url(#clip842)" d="M1609.17 1315.7 L1609.17 1423.18 L1650.7 1423.18 L1650.7 1315.7 L1609.17 1315.7 L1609.17 1315.7  Z" fill="#00008b" fill-rule="evenodd" fill-opacity="0.5"/>
<polyline clip-path="url(#clip842)" style="stroke:#000000; stroke-linecap:round; stroke-linejoin:round; stroke-width:4; stroke-opacity:0.1; fill:none" points="1609.17,1315.7 1609.17,1423.18 1650.7,1423.18 1650.7,1315.7 1609.17,1315.7 "/>
<path clip-path="url(#clip842)" d="M1650.7 1334.07 L1650.7 1423.18 L1692.23 1423.18 L1692.23 1334.07 L1650.7 1334.07 L1650.7 1334.07  Z" fill="#00008b" fill-rule="evenodd" fill-opacity="0.5"/>
<polyline clip-path="url(#clip842)" style="stroke:#000000; stroke-linecap:round; stroke-linejoin:round; stroke-width:4; stroke-opacity:0.1; fill:none" points="1650.7,1334.07 1650.7,1423.18 1692.23,1423.18 1692.23,1334.07 1650.7,1334.07 "/>
<path clip-path="url(#clip842)" d="M1692.23 1329.89 L1692.23 1423.18 L1733.76 1423.18 L1733.76 1329.89 L1692.23 1329.89 L1692.23 1329.89  Z" fill="#00008b" fill-rule="evenodd" fill-opacity="0.5"/>
<polyline clip-path="url(#clip842)" style="stroke:#000000; stroke-linecap:round; stroke-linejoin:round; stroke-width:4; stroke-opacity:0.1; fill:none" points="1692.23,1329.89 1692.23,1423.18 1733.76,1423.18 1733.76,1329.89 1692.23,1329.89 "/>
<path clip-path="url(#clip842)" d="M1733.76 1323.42 L1733.76 1423.18 L1775.29 1423.18 L1775.29 1323.42 L1733.76 1323.42 L1733.76 1323.42  Z" fill="#00008b" fill-rule="evenodd" fill-opacity="0.5"/>
<polyline clip-path="url(#clip842)" style="stroke:#000000; stroke-linecap:round; stroke-linejoin:round; stroke-width:4; stroke-opacity:0.1; fill:none" points="1733.76,1323.42 1733.76,1423.18 1775.29,1423.18 1775.29,1323.42 1733.76,1323.42 "/>
<path clip-path="url(#clip842)" d="M1775.29 1339.28 L1775.29 1423.18 L1816.82 1423.18 L1816.82 1339.28 L1775.29 1339.28 L1775.29 1339.28  Z" fill="#00008b" fill-rule="evenodd" fill-opacity="0.5"/>
<polyline clip-path="url(#clip842)" style="stroke:#000000; stroke-linecap:round; stroke-linejoin:round; stroke-width:4; stroke-opacity:0.1; fill:none" points="1775.29,1339.28 1775.29,1423.18 1816.82,1423.18 1816.82,1339.28 1775.29,1339.28 "/>
<path clip-path="url(#clip842)" d="M1816.82 1348.47 L1816.82 1423.18 L1858.35 1423.18 L1858.35 1348.47 L1816.82 1348.47 L1816.82 1348.47  Z" fill="#00008b" fill-rule="evenodd" fill-opacity="0.5"/>
<polyline clip-path="url(#clip842)" style="stroke:#000000; stroke-linecap:round; stroke-linejoin:round; stroke-width:4; stroke-opacity:0.1; fill:none" points="1816.82,1348.47 1816.82,1423.18 1858.35,1423.18 1858.35,1348.47 1816.82,1348.47 "/>
<path clip-path="url(#clip842)" d="M1858.35 1351.6 L1858.35 1423.18 L1899.88 1423.18 L1899.88 1351.6 L1858.35 1351.6 L1858.35 1351.6  Z" fill="#00008b" fill-rule="evenodd" fill-opacity="0.5"/>
<polyline clip-path="url(#clip842)" style="stroke:#000000; stroke-linecap:round; stroke-linejoin:round; stroke-width:4; stroke-opacity:0.1; fill:none" points="1858.35,1351.6 1858.35,1423.18 1899.88,1423.18 1899.88,1351.6 1858.35,1351.6 "/>
<path clip-path="url(#clip842)" d="M1899.88 1365.58 L1899.88 1423.18 L1941.41 1423.18 L1941.41 1365.58 L1899.88 1365.58 L1899.88 1365.58  Z" fill="#00008b" fill-rule="evenodd" fill-opacity="0.5"/>
<polyline clip-path="url(#clip842)" style="stroke:#000000; stroke-linecap:round; stroke-linejoin:round; stroke-width:4; stroke-opacity:0.1; fill:none" points="1899.88,1365.58 1899.88,1423.18 1941.41,1423.18 1941.41,1365.58 1899.88,1365.58 "/>
<path clip-path="url(#clip842)" d="M1941.41 1402.73 L1941.41 1423.18 L1982.94 1423.18 L1982.94 1402.73 L1941.41 1402.73 L1941.41 1402.73  Z" fill="#00008b" fill-rule="evenodd" fill-opacity="0.5"/>
<polyline clip-path="url(#clip842)" style="stroke:#000000; stroke-linecap:round; stroke-linejoin:round; stroke-width:4; stroke-opacity:0.1; fill:none" points="1941.41,1402.73 1941.41,1423.18 1982.94,1423.18 1982.94,1402.73 1941.41,1402.73 "/>
<path clip-path="url(#clip842)" d="M1982.94 1412.33 L1982.94 1423.18 L2024.47 1423.18 L2024.47 1412.33 L1982.94 1412.33 L1982.94 1412.33  Z" fill="#00008b" fill-rule="evenodd" fill-opacity="0.5"/>
<polyline clip-path="url(#clip842)" style="stroke:#000000; stroke-linecap:round; stroke-linejoin:round; stroke-width:4; stroke-opacity:0.1; fill:none" points="1982.94,1412.33 1982.94,1423.18 2024.47,1423.18 2024.47,1412.33 1982.94,1412.33 "/>
<path clip-path="url(#clip842)" d="M2024.47 1402.31 L2024.47 1423.18 L2066 1423.18 L2066 1402.31 L2024.47 1402.31 L2024.47 1402.31  Z" fill="#00008b" fill-rule="evenodd" fill-opacity="0.5"/>
<polyline clip-path="url(#clip842)" style="stroke:#000000; stroke-linecap:round; stroke-linejoin:round; stroke-width:4; stroke-opacity:0.1; fill:none" points="2024.47,1402.31 2024.47,1423.18 2066,1423.18 2066,1402.31 2024.47,1402.31 "/>
<path clip-path="url(#clip842)" d="M2066 1408.57 L2066 1423.18 L2107.53 1423.18 L2107.53 1408.57 L2066 1408.57 L2066 1408.57  Z" fill="#00008b" fill-rule="evenodd" fill-opacity="0.5"/>
<polyline clip-path="url(#clip842)" style="stroke:#000000; stroke-linecap:round; stroke-linejoin:round; stroke-width:4; stroke-opacity:0.1; fill:none" points="2066,1408.57 2066,1423.18 2107.53,1423.18 2107.53,1408.57 2066,1408.57 "/>
<path clip-path="url(#clip842)" d="M2107.53 1408.15 L2107.53 1423.18 L2149.07 1423.18 L2149.07 1408.15 L2107.53 1408.15 L2107.53 1408.15  Z" fill="#00008b" fill-rule="evenodd" fill-opacity="0.5"/>
<polyline clip-path="url(#clip842)" style="stroke:#000000; stroke-linecap:round; stroke-linejoin:round; stroke-width:4; stroke-opacity:0.1; fill:none" points="2107.53,1408.15 2107.53,1423.18 2149.07,1423.18 2149.07,1408.15 2107.53,1408.15 "/>
<path clip-path="url(#clip842)" d="M2149.07 1416.71 L2149.07 1423.18 L2190.6 1423.18 L2190.6 1416.71 L2149.07 1416.71 L2149.07 1416.71  Z" fill="#00008b" fill-rule="evenodd" fill-opacity="0.5"/>
<polyline clip-path="url(#clip842)" style="stroke:#000000; stroke-linecap:round; stroke-linejoin:round; stroke-width:4; stroke-opacity:0.1; fill:none" points="2149.07,1416.71 2149.07,1423.18 2190.6,1423.18 2190.6,1416.71 2149.07,1416.71 "/>
<path clip-path="url(#clip842)" d="M2190.6 1422.35 L2190.6 1423.18 L2232.13 1423.18 L2232.13 1422.35 L2190.6 1422.35 L2190.6 1422.35  Z" fill="#00008b" fill-rule="evenodd" fill-opacity="0.5"/>
<polyline clip-path="url(#clip842)" style="stroke:#000000; stroke-linecap:round; stroke-linejoin:round; stroke-width:4; stroke-opacity:0.1; fill:none" points="2190.6,1422.35 2190.6,1423.18 2232.13,1423.18 2232.13,1422.35 2190.6,1422.35 "/>
<circle clip-path="url(#clip842)" style="fill:#00008b; stroke:none; fill-opacity:0" cx="300.955" cy="87.3199" r="2"/>
<circle clip-path="url(#clip842)" style="fill:#00008b; stroke:none; fill-opacity:0" cx="342.486" cy="242.589" r="2"/>
<circle clip-path="url(#clip842)" style="fill:#00008b; stroke:none; fill-opacity:0" cx="384.016" cy="196.259" r="2"/>
<circle clip-path="url(#clip842)" style="fill:#00008b; stroke:none; fill-opacity:0" cx="425.547" cy="249.476" r="2"/>
<circle clip-path="url(#clip842)" style="fill:#00008b; stroke:none; fill-opacity:0" cx="467.078" cy="189.998" r="2"/>
<circle clip-path="url(#clip842)" style="fill:#00008b; stroke:none; fill-opacity:0" cx="508.608" cy="330.45" r="2"/>
<circle clip-path="url(#clip842)" style="fill:#00008b; stroke:none; fill-opacity:0" cx="550.139" cy="411.841" r="2"/>
<circle clip-path="url(#clip842)" style="fill:#00008b; stroke:none; fill-opacity:0" cx="591.669" cy="539.563" r="2"/>
<circle clip-path="url(#clip842)" style="fill:#00008b; stroke:none; fill-opacity:0" cx="633.2" cy="459.841" r="2"/>
<circle clip-path="url(#clip842)" style="fill:#00008b; stroke:none; fill-opacity:0" cx="674.73" cy="602.38" r="2"/>
<circle clip-path="url(#clip842)" style="fill:#00008b; stroke:none; fill-opacity:0" cx="716.261" cy="617.615" r="2"/>
<circle clip-path="url(#clip842)" style="fill:#00008b; stroke:none; fill-opacity:0" cx="757.791" cy="714.867" r="2"/>
<circle clip-path="url(#clip842)" style="fill:#00008b; stroke:none; fill-opacity:0" cx="799.322" cy="742.624" r="2"/>
<circle clip-path="url(#clip842)" style="fill:#00008b; stroke:none; fill-opacity:0" cx="840.853" cy="763.702" r="2"/>
<circle clip-path="url(#clip842)" style="fill:#00008b; stroke:none; fill-opacity:0" cx="882.383" cy="756.189" r="2"/>
<circle clip-path="url(#clip842)" style="fill:#00008b; stroke:none; fill-opacity:0" cx="923.914" cy="844.676" r="2"/>
<circle clip-path="url(#clip842)" style="fill:#00008b; stroke:none; fill-opacity:0" cx="965.444" cy="810.867" r="2"/>
<circle clip-path="url(#clip842)" style="fill:#00008b; stroke:none; fill-opacity:0" cx="1006.97" cy="852.606" r="2"/>
<circle clip-path="url(#clip842)" style="fill:#00008b; stroke:none; fill-opacity:0" cx="1048.51" cy="960.711" r="2"/>
<circle clip-path="url(#clip842)" style="fill:#00008b; stroke:none; fill-opacity:0" cx="1090.04" cy="1080.08" r="2"/>
<circle clip-path="url(#clip842)" style="fill:#00008b; stroke:none; fill-opacity:0" cx="1131.57" cy="1048.15" r="2"/>
<circle clip-path="url(#clip842)" style="fill:#00008b; stroke:none; fill-opacity:0" cx="1173.1" cy="1006.21" r="2"/>
<circle clip-path="url(#clip842)" style="fill:#00008b; stroke:none; fill-opacity:0" cx="1214.63" cy="1102.21" r="2"/>
<circle clip-path="url(#clip842)" style="fill:#00008b; stroke:none; fill-opacity:0" cx="1256.16" cy="1110.14" r="2"/>
<circle clip-path="url(#clip842)" style="fill:#00008b; stroke:none; fill-opacity:0" cx="1297.69" cy="1090.52" r="2"/>
<circle clip-path="url(#clip842)" style="fill:#00008b; stroke:none; fill-opacity:0" cx="1339.22" cy="1142.07" r="2"/>
<circle clip-path="url(#clip842)" style="fill:#00008b; stroke:none; fill-opacity:0" cx="1380.75" cy="1165.86" r="2"/>
<circle clip-path="url(#clip842)" style="fill:#00008b; stroke:none; fill-opacity:0" cx="1422.28" cy="1233.48" r="2"/>
<circle clip-path="url(#clip842)" style="fill:#00008b; stroke:none; fill-opacity:0" cx="1463.81" cy="1223.67" r="2"/>
<circle clip-path="url(#clip842)" style="fill:#00008b; stroke:none; fill-opacity:0" cx="1505.34" cy="1243.08" r="2"/>
<circle clip-path="url(#clip842)" style="fill:#00008b; stroke:none; fill-opacity:0" cx="1546.87" cy="1310.07" r="2"/>
<circle clip-path="url(#clip842)" style="fill:#00008b; stroke:none; fill-opacity:0" cx="1588.4" cy="1309.65" r="2"/>
<circle clip-path="url(#clip842)" style="fill:#00008b; stroke:none; fill-opacity:0" cx="1629.93" cy="1315.7" r="2"/>
<circle clip-path="url(#clip842)" style="fill:#00008b; stroke:none; fill-opacity:0" cx="1671.46" cy="1334.07" r="2"/>
<circle clip-path="url(#clip842)" style="fill:#00008b; stroke:none; fill-opacity:0" cx="1712.99" cy="1329.89" r="2"/>
<circle clip-path="url(#clip842)" style="fill:#00008b; stroke:none; fill-opacity:0" cx="1754.52" cy="1323.42" r="2"/>
<circle clip-path="url(#clip842)" style="fill:#00008b; stroke:none; fill-opacity:0" cx="1796.06" cy="1339.28" r="2"/>
<circle clip-path="url(#clip842)" style="fill:#00008b; stroke:none; fill-opacity:0" cx="1837.59" cy="1348.47" r="2"/>
<circle clip-path="url(#clip842)" style="fill:#00008b; stroke:none; fill-opacity:0" cx="1879.12" cy="1351.6" r="2"/>
<circle clip-path="url(#clip842)" style="fill:#00008b; stroke:none; fill-opacity:0" cx="1920.65" cy="1365.58" r="2"/>
<circle clip-path="url(#clip842)" style="fill:#00008b; stroke:none; fill-opacity:0" cx="1962.18" cy="1402.73" r="2"/>
<circle clip-path="url(#clip842)" style="fill:#00008b; stroke:none; fill-opacity:0" cx="2003.71" cy="1412.33" r="2"/>
<circle clip-path="url(#clip842)" style="fill:#00008b; stroke:none; fill-opacity:0" cx="2045.24" cy="1402.31" r="2"/>
<circle clip-path="url(#clip842)" style="fill:#00008b; stroke:none; fill-opacity:0" cx="2086.77" cy="1408.57" r="2"/>
<circle clip-path="url(#clip842)" style="fill:#00008b; stroke:none; fill-opacity:0" cx="2128.3" cy="1408.15" r="2"/>
<circle clip-path="url(#clip842)" style="fill:#00008b; stroke:none; fill-opacity:0" cx="2169.83" cy="1416.71" r="2"/>
<circle clip-path="url(#clip842)" style="fill:#00008b; stroke:none; fill-opacity:0" cx="2211.36" cy="1422.35" r="2"/>
<path clip-path="url(#clip840)" d="M1719.38 196.789 L2283.67 196.789 L2283.67 93.1086 L1719.38 93.1086  Z" fill="#ffffff" fill-rule="evenodd" fill-opacity="1"/>
<polyline clip-path="url(#clip840)" style="stroke:#000000; stroke-linecap:round; stroke-linejoin:round; stroke-width:4; stroke-opacity:1; fill:none" points="1719.38,196.789 2283.67,196.789 2283.67,93.1086 1719.38,93.1086 1719.38,196.789 "/>
<path clip-path="url(#clip840)" d="M1742.41 165.685 L1880.58 165.685 L1880.58 124.213 L1742.41 124.213 L1742.41 165.685  Z" fill="#00008b" fill-rule="evenodd" fill-opacity="0.5"/>
<polyline clip-path="url(#clip840)" style="stroke:#000000; stroke-linecap:round; stroke-linejoin:round; stroke-width:4; stroke-opacity:1; fill:none" points="1742.41,165.685 1880.58,165.685 1880.58,124.213 1742.41,124.213 1742.41,165.685 "/>
<path clip-path="url(#clip840)" d="M1903.61 127.669 L1932.84 127.669 L1932.84 131.604 L1920.57 131.604 L1920.57 162.229 L1915.88 162.229 L1915.88 131.604 L1903.61 131.604 L1903.61 127.669 Z" fill="#000000" fill-rule="nonzero" fill-opacity="1" /><path clip-path="url(#clip840)" d="M1935.71 136.303 L1939.97 136.303 L1939.97 162.229 L1935.71 162.229 L1935.71 136.303 M1935.71 126.21 L1939.97 126.21 L1939.97 131.604 L1935.71 131.604 L1935.71 126.21 Z" fill="#000000" fill-rule="nonzero" fill-opacity="1" /><path clip-path="url(#clip840)" d="M1969.07 141.28 Q1970.67 138.409 1972.89 137.044 Q1975.11 135.678 1978.12 135.678 Q1982.17 135.678 1984.37 138.525 Q1986.57 141.349 1986.57 146.581 L1986.57 162.229 L1982.29 162.229 L1982.29 146.719 Q1982.29 142.993 1980.97 141.187 Q1979.65 139.382 1976.94 139.382 Q1973.63 139.382 1971.71 141.581 Q1969.79 143.78 1969.79 147.576 L1969.79 162.229 L1965.5 162.229 L1965.5 146.719 Q1965.5 142.969 1964.19 141.187 Q1962.87 139.382 1960.11 139.382 Q1956.85 139.382 1954.93 141.604 Q1953 143.803 1953 147.576 L1953 162.229 L1948.72 162.229 L1948.72 136.303 L1953 136.303 L1953 140.331 Q1954.46 137.946 1956.5 136.812 Q1958.54 135.678 1961.34 135.678 Q1964.16 135.678 1966.13 137.113 Q1968.12 138.548 1969.07 141.28 Z" fill="#000000" fill-rule="nonzero" fill-opacity="1" /><path clip-path="url(#clip840)" d="M2017.24 148.201 L2017.24 150.284 L1997.66 150.284 Q1997.93 154.682 2000.3 156.997 Q2002.68 159.289 2006.92 159.289 Q2009.37 159.289 2011.66 158.687 Q2013.98 158.085 2016.25 156.881 L2016.25 160.909 Q2013.95 161.881 2011.55 162.391 Q2009.14 162.9 2006.66 162.9 Q2000.46 162.9 1996.82 159.289 Q1993.21 155.678 1993.21 149.52 Q1993.21 143.155 1996.64 139.428 Q2000.09 135.678 2005.92 135.678 Q2011.15 135.678 2014.18 139.057 Q2017.24 142.414 2017.24 148.201 M2012.98 146.951 Q2012.93 143.456 2011.01 141.372 Q2009.12 139.289 2005.97 139.289 Q2002.4 139.289 2000.25 141.303 Q1998.12 143.317 1997.8 146.974 L2012.98 146.951 Z" fill="#000000" fill-rule="nonzero" fill-opacity="1" /><path clip-path="url(#clip840)" d="M2049.35 139.289 Q2045.92 139.289 2043.93 141.974 Q2041.94 144.636 2041.94 149.289 Q2041.94 153.942 2043.91 156.627 Q2045.9 159.289 2049.35 159.289 Q2052.75 159.289 2054.74 156.604 Q2056.73 153.918 2056.73 149.289 Q2056.73 144.682 2054.74 141.997 Q2052.75 139.289 2049.35 139.289 M2049.35 135.678 Q2054.9 135.678 2058.07 139.289 Q2061.24 142.9 2061.24 149.289 Q2061.24 155.655 2058.07 159.289 Q2054.9 162.9 2049.35 162.9 Q2043.77 162.9 2040.6 159.289 Q2037.45 155.655 2037.45 149.289 Q2037.45 142.9 2040.6 139.289 Q2043.77 135.678 2049.35 135.678 Z" fill="#000000" fill-rule="nonzero" fill-opacity="1" /><path clip-path="url(#clip840)" d="M2081.43 126.21 L2081.43 129.752 L2077.36 129.752 Q2075.06 129.752 2074.16 130.678 Q2073.28 131.604 2073.28 134.011 L2073.28 136.303 L2080.3 136.303 L2080.3 139.613 L2073.28 139.613 L2073.28 162.229 L2069 162.229 L2069 139.613 L2064.93 139.613 L2064.93 136.303 L2069 136.303 L2069 134.497 Q2069 130.169 2071.01 128.201 Q2073.03 126.21 2077.4 126.21 L2081.43 126.21 Z" fill="#000000" fill-rule="nonzero" fill-opacity="1" /><path clip-path="url(#clip840)" d="M2104.93 131.511 L2104.93 144.497 L2110.8 144.497 Q2114.07 144.497 2115.85 142.807 Q2117.63 141.118 2117.63 137.993 Q2117.63 134.891 2115.85 133.201 Q2114.07 131.511 2110.8 131.511 L2104.93 131.511 M2100.25 127.669 L2110.8 127.669 Q2116.61 127.669 2119.58 130.307 Q2122.56 132.923 2122.56 137.993 Q2122.56 143.108 2119.58 145.724 Q2116.61 148.34 2110.8 148.34 L2104.93 148.34 L2104.93 162.229 L2100.25 162.229 L2100.25 127.669 Z" fill="#000000" fill-rule="nonzero" fill-opacity="1" /><path clip-path="url(#clip840)" d="M2147.26 149.289 Q2147.26 144.59 2145.32 141.928 Q2143.4 139.243 2140.02 139.243 Q2136.64 139.243 2134.69 141.928 Q2132.77 144.59 2132.77 149.289 Q2132.77 153.988 2134.69 156.673 Q2136.64 159.335 2140.02 159.335 Q2143.4 159.335 2145.32 156.673 Q2147.26 153.988 2147.26 149.289 M2132.77 140.238 Q2134.11 137.923 2136.15 136.812 Q2138.21 135.678 2141.06 135.678 Q2145.78 135.678 2148.72 139.428 Q2151.68 143.178 2151.68 149.289 Q2151.68 155.4 2148.72 159.15 Q2145.78 162.9 2141.06 162.9 Q2138.21 162.9 2136.15 161.789 Q2134.11 160.655 2132.77 158.34 L2132.77 162.229 L2128.49 162.229 L2128.49 126.21 L2132.77 126.21 L2132.77 140.238 Z" fill="#000000" fill-rule="nonzero" fill-opacity="1" /><path clip-path="url(#clip840)" d="M2156.59 147.344 L2169.07 147.344 L2169.07 151.141 L2156.59 151.141 L2156.59 147.344 Z" fill="#000000" fill-rule="nonzero" fill-opacity="1" /><path clip-path="url(#clip840)" d="M2175.85 126.21 L2180.11 126.21 L2180.11 162.229 L2175.85 162.229 L2175.85 126.21 Z" fill="#000000" fill-rule="nonzero" fill-opacity="1" /><path clip-path="url(#clip840)" d="M2199.07 139.289 Q2195.64 139.289 2193.65 141.974 Q2191.66 144.636 2191.66 149.289 Q2191.66 153.942 2193.63 156.627 Q2195.62 159.289 2199.07 159.289 Q2202.47 159.289 2204.46 156.604 Q2206.45 153.918 2206.45 149.289 Q2206.45 144.682 2204.46 141.997 Q2202.47 139.289 2199.07 139.289 M2199.07 135.678 Q2204.62 135.678 2207.79 139.289 Q2210.97 142.9 2210.97 149.289 Q2210.97 155.655 2207.79 159.289 Q2204.62 162.9 2199.07 162.9 Q2193.49 162.9 2190.32 159.289 Q2187.17 155.655 2187.17 149.289 Q2187.17 142.9 2190.32 139.289 Q2193.49 135.678 2199.07 135.678 Z" fill="#000000" fill-rule="nonzero" fill-opacity="1" /><path clip-path="url(#clip840)" d="M2234.55 137.067 L2234.55 141.094 Q2232.75 140.169 2230.8 139.706 Q2228.86 139.243 2226.78 139.243 Q2223.61 139.243 2222.01 140.215 Q2220.43 141.187 2220.43 143.131 Q2220.43 144.613 2221.57 145.469 Q2222.7 146.303 2226.13 147.067 L2227.59 147.391 Q2232.12 148.363 2234.02 150.145 Q2235.94 151.905 2235.94 155.076 Q2235.94 158.687 2233.07 160.793 Q2230.23 162.9 2225.23 162.9 Q2223.14 162.9 2220.87 162.483 Q2218.63 162.09 2216.13 161.28 L2216.13 156.881 Q2218.49 158.108 2220.78 158.733 Q2223.07 159.335 2225.32 159.335 Q2228.33 159.335 2229.95 158.317 Q2231.57 157.275 2231.57 155.4 Q2231.57 153.664 2230.39 152.738 Q2229.23 151.812 2225.27 150.956 L2223.79 150.608 Q2219.83 149.775 2218.07 148.062 Q2216.31 146.326 2216.31 143.317 Q2216.31 139.659 2218.91 137.669 Q2221.5 135.678 2226.27 135.678 Q2228.63 135.678 2230.71 136.025 Q2232.79 136.372 2234.55 137.067 Z" fill="#000000" fill-rule="nonzero" fill-opacity="1" /><path clip-path="url(#clip840)" d="M2259.25 137.067 L2259.25 141.094 Q2257.45 140.169 2255.5 139.706 Q2253.56 139.243 2251.48 139.243 Q2248.3 139.243 2246.71 140.215 Q2245.13 141.187 2245.13 143.131 Q2245.13 144.613 2246.27 145.469 Q2247.4 146.303 2250.83 147.067 L2252.29 147.391 Q2256.82 148.363 2258.72 150.145 Q2260.64 151.905 2260.64 155.076 Q2260.64 158.687 2257.77 160.793 Q2254.92 162.9 2249.92 162.9 Q2247.84 162.9 2245.57 162.483 Q2243.33 162.09 2240.83 161.28 L2240.83 156.881 Q2243.19 158.108 2245.48 158.733 Q2247.77 159.335 2250.02 159.335 Q2253.03 159.335 2254.65 158.317 Q2256.27 157.275 2256.27 155.4 Q2256.27 153.664 2255.09 152.738 Q2253.93 151.812 2249.97 150.956 L2248.49 150.608 Q2244.53 149.775 2242.77 148.062 Q2241.01 146.326 2241.01 143.317 Q2241.01 139.659 2243.6 137.669 Q2246.2 135.678 2250.97 135.678 Q2253.33 135.678 2255.41 136.025 Q2257.49 136.372 2259.25 137.067 Z" fill="#000000" fill-rule="nonzero" fill-opacity="1" /></svg>
