<?xml version="1.0" encoding="utf-8"?>
<svg xmlns="http://www.w3.org/2000/svg" xmlns:xlink="http://www.w3.org/1999/xlink" width="600" height="400" viewBox="0 0 2400 1600">
<defs>
  <clipPath id="clip630">
    <rect x="0" y="0" width="2400" height="1600"/>
  </clipPath>
</defs>
<path clip-path="url(#clip630)" d="M0 1600 L2400 1600 L2400 0 L0 0  Z" fill="#ffffff" fill-rule="evenodd" fill-opacity="1"/>
<defs>
  <clipPath id="clip631">
    <rect x="480" y="0" width="1681" height="1600"/>
  </clipPath>
</defs>
<path clip-path="url(#clip630)" d="M233.709 1552.76 L2352.76 1552.76 L2352.76 47.2441 L233.709 47.2441  Z" fill="#ffffff" fill-rule="evenodd" fill-opacity="1"/>
<defs>
  <clipPath id="clip632">
    <rect x="233" y="47" width="2120" height="1507"/>
  </clipPath>
</defs>
<polyline clip-path="url(#clip630)" style="stroke:#000000; stroke-linecap:round; stroke-linejoin:round; stroke-width:4; stroke-opacity:1; fill:none" points="233.709,1552.76 2352.76,1552.76 "/>
<polyline clip-path="url(#clip630)" style="stroke:#000000; stroke-linecap:round; stroke-linejoin:round; stroke-width:4; stroke-opacity:1; fill:none" points="233.709,47.2441 2352.76,47.2441 "/>
<polyline clip-path="url(#clip632)" style="stroke:#000000; stroke-linecap:round; stroke-linejoin:round; stroke-width:2; stroke-opacity:0.1; fill:none" points="233.709,1358.56 2352.76,1358.56 "/>
<polyline clip-path="url(#clip632)" style="stroke:#000000; stroke-linecap:round; stroke-linejoin:round; stroke-width:2; stroke-opacity:0.1; fill:none" points="233.709,1072.84 2352.76,1072.84 "/>
<polyline clip-path="url(#clip632)" style="stroke:#000000; stroke-linecap:round; stroke-linejoin:round; stroke-width:2; stroke-opacity:0.1; fill:none" points="233.709,787.11 2352.76,787.11 "/>
<polyline clip-path="url(#clip632)" style="stroke:#000000; stroke-linecap:round; stroke-linejoin:round; stroke-width:2; stroke-opacity:0.1; fill:none" points="233.709,501.385 2352.76,501.385 "/>
<polyline clip-path="url(#clip632)" style="stroke:#000000; stroke-linecap:round; stroke-linejoin:round; stroke-width:2; stroke-opacity:0.1; fill:none" points="233.709,215.66 2352.76,215.66 "/>
<polyline clip-path="url(#clip630)" style="stroke:#000000; stroke-linecap:round; stroke-linejoin:round; stroke-width:4; stroke-opacity:1; fill:none" points="233.709,1552.76 233.709,47.2441 "/>
<polyline clip-path="url(#clip630)" style="stroke:#000000; stroke-linecap:round; stroke-linejoin:round; stroke-width:4; stroke-opacity:1; fill:none" points="2352.76,1552.76 2352.76,47.2441 "/>
<polyline clip-path="url(#clip630)" style="stroke:#000000; stroke-linecap:round; stroke-linejoin:round; stroke-width:4; stroke-opacity:1; fill:none" points="233.709,1358.56 252.606,1358.56 "/>
<polyline clip-path="url(#clip630)" style="stroke:#000000; stroke-linecap:round; stroke-linejoin:round; stroke-width:4; stroke-opacity:1; fill:none" points="233.709,1072.84 252.606,1072.84 "/>
<polyline clip-path="url(#clip630)" style="stroke:#000000; stroke-linecap:round; stroke-linejoin:round; stroke-width:4; stroke-opacity:1; fill:none" points="233.709,787.11 252.606,787.11 "/>
<polyline clip-path="url(#clip630)" style="stroke:#000000; stroke-linecap:round; stroke-linejoin:round; stroke-width:4; stroke-opacity:1; fill:none" points="233.709,501.385 252.606,501.385 "/>
<polyline clip-path="url(#clip630)" style="stroke:#000000; stroke-linecap:round; stroke-linejoin:round; stroke-width:4; stroke-opacity:1; fill:none" points="233.709,215.66 252.606,215.66 "/>
<path clip-path="url(#clip630)" d="M114.445 1341.28 L136.667 1341.28 L136.667 1343.27 L124.121 1375.84 L119.237 1375.84 L131.042 1345.22 L114.445 1345.22 L114.445 1341.28 Z" fill="#000000" fill-rule="nonzero" fill-opacity="1" /><path clip-path="url(#clip630)" d="M158.635 1345.35 L146.829 1363.8 L158.635 1363.8 L158.635 1345.35 M157.408 1341.28 L163.288 1341.28 L163.288 1363.8 L168.218 1363.8 L168.218 1367.69 L163.288 1367.69 L163.288 1375.84 L158.635 1375.84 L158.635 1367.69 L143.033 1367.69 L143.033 1363.18 L157.408 1341.28 Z" fill="#000000" fill-rule="nonzero" fill-opacity="1" /><path clip-path="url(#clip630)" d="M176.089 1375.12 L176.089 1370.86 Q177.848 1371.7 179.653 1372.14 Q181.459 1372.58 183.195 1372.58 Q187.825 1372.58 190.255 1369.47 Q192.709 1366.35 193.056 1360.01 Q191.713 1362 189.653 1363.06 Q187.593 1364.13 185.093 1364.13 Q179.908 1364.13 176.876 1361 Q173.866 1357.85 173.866 1352.41 Q173.866 1347.09 177.014 1343.87 Q180.163 1340.66 185.394 1340.66 Q191.389 1340.66 194.538 1345.26 Q197.709 1349.85 197.709 1358.6 Q197.709 1366.77 193.82 1371.65 Q189.954 1376.51 183.403 1376.51 Q181.644 1376.51 179.839 1376.16 Q178.033 1375.82 176.089 1375.12 M185.394 1360.47 Q188.542 1360.47 190.371 1358.32 Q192.223 1356.16 192.223 1352.41 Q192.223 1348.69 190.371 1346.53 Q188.542 1344.36 185.394 1344.36 Q182.246 1344.36 180.394 1346.53 Q178.565 1348.69 178.565 1352.41 Q178.565 1356.16 180.394 1358.32 Q182.246 1360.47 185.394 1360.47 Z" fill="#000000" fill-rule="nonzero" fill-opacity="1" /><path clip-path="url(#clip630)" d="M114.26 1055.56 L136.482 1055.56 L136.482 1057.55 L123.936 1090.12 L119.052 1090.12 L130.857 1059.49 L114.26 1059.49 L114.26 1055.56 Z" fill="#000000" fill-rule="nonzero" fill-opacity="1" /><path clip-path="url(#clip630)" d="M145.649 1055.56 L164.005 1055.56 L164.005 1059.49 L149.931 1059.49 L149.931 1067.96 Q150.95 1067.62 151.968 1067.45 Q152.987 1067.27 154.005 1067.27 Q159.792 1067.27 163.172 1070.44 Q166.552 1073.61 166.552 1079.03 Q166.552 1084.61 163.079 1087.71 Q159.607 1090.79 153.288 1090.79 Q151.112 1090.79 148.843 1090.42 Q146.598 1090.05 144.191 1089.31 L144.191 1084.61 Q146.274 1085.74 148.496 1086.3 Q150.718 1086.85 153.195 1086.85 Q157.2 1086.85 159.538 1084.74 Q161.876 1082.64 161.876 1079.03 Q161.876 1075.42 159.538 1073.31 Q157.2 1071.2 153.195 1071.2 Q151.32 1071.2 149.445 1071.62 Q147.593 1072.04 145.649 1072.92 L145.649 1055.56 Z" fill="#000000" fill-rule="nonzero" fill-opacity="1" /><path clip-path="url(#clip630)" d="M185.764 1058.63 Q182.153 1058.63 180.325 1062.2 Q178.519 1065.74 178.519 1072.87 Q178.519 1079.98 180.325 1083.54 Q182.153 1087.08 185.764 1087.08 Q189.399 1087.08 191.204 1083.54 Q193.033 1079.98 193.033 1072.87 Q193.033 1065.74 191.204 1062.2 Q189.399 1058.63 185.764 1058.63 M185.764 1054.93 Q191.575 1054.93 194.63 1059.54 Q197.709 1064.12 197.709 1072.87 Q197.709 1081.6 194.63 1086.2 Q191.575 1090.79 185.764 1090.79 Q179.954 1090.79 176.876 1086.2 Q173.82 1081.6 173.82 1072.87 Q173.82 1064.12 176.876 1059.54 Q179.954 1054.93 185.764 1054.93 Z" fill="#000000" fill-rule="nonzero" fill-opacity="1" /><path clip-path="url(#clip630)" d="M115.487 769.83 L137.709 769.83 L137.709 771.821 L125.163 804.39 L120.279 804.39 L132.084 773.765 L115.487 773.765 L115.487 769.83 Z" fill="#000000" fill-rule="nonzero" fill-opacity="1" /><path clip-path="url(#clip630)" d="M146.876 769.83 L165.232 769.83 L165.232 773.765 L151.158 773.765 L151.158 782.237 Q152.177 781.89 153.195 781.728 Q154.214 781.543 155.232 781.543 Q161.019 781.543 164.399 784.714 Q167.778 787.885 167.778 793.302 Q167.778 798.881 164.306 801.983 Q160.834 805.061 154.515 805.061 Q152.339 805.061 150.07 804.691 Q147.825 804.321 145.417 803.58 L145.417 798.881 Q147.501 800.015 149.723 800.571 Q151.945 801.126 154.422 801.126 Q158.427 801.126 160.765 799.02 Q163.102 796.913 163.102 793.302 Q163.102 789.691 160.765 787.585 Q158.427 785.478 154.422 785.478 Q152.547 785.478 150.672 785.895 Q148.82 786.311 146.876 787.191 L146.876 769.83 Z" fill="#000000" fill-rule="nonzero" fill-opacity="1" /><path clip-path="url(#clip630)" d="M177.801 800.455 L185.44 800.455 L185.44 774.089 L177.13 775.756 L177.13 771.497 L185.394 769.83 L190.07 769.83 L190.07 800.455 L197.709 800.455 L197.709 804.39 L177.801 804.39 L177.801 800.455 Z" fill="#000000" fill-rule="nonzero" fill-opacity="1" /><path clip-path="url(#clip630)" d="M115.857 484.105 L138.079 484.105 L138.079 486.096 L125.533 518.665 L120.649 518.665 L132.455 488.04 L115.857 488.04 L115.857 484.105 Z" fill="#000000" fill-rule="nonzero" fill-opacity="1" /><path clip-path="url(#clip630)" d="M147.246 484.105 L165.602 484.105 L165.602 488.04 L151.528 488.04 L151.528 496.512 Q152.547 496.165 153.566 496.003 Q154.584 495.818 155.603 495.818 Q161.39 495.818 164.769 498.989 Q168.149 502.16 168.149 507.577 Q168.149 513.156 164.677 516.257 Q161.204 519.336 154.885 519.336 Q152.709 519.336 150.441 518.966 Q148.195 518.595 145.788 517.855 L145.788 513.156 Q147.871 514.29 150.093 514.845 Q152.316 515.401 154.792 515.401 Q158.797 515.401 161.135 513.295 Q163.473 511.188 163.473 507.577 Q163.473 503.966 161.135 501.859 Q158.797 499.753 154.792 499.753 Q152.917 499.753 151.042 500.17 Q149.191 500.586 147.246 501.466 L147.246 484.105 Z" fill="#000000" fill-rule="nonzero" fill-opacity="1" /><path clip-path="url(#clip630)" d="M181.389 514.73 L197.709 514.73 L197.709 518.665 L175.764 518.665 L175.764 514.73 Q178.426 511.975 183.01 507.345 Q187.616 502.693 188.797 501.35 Q191.042 498.827 191.922 497.091 Q192.825 495.332 192.825 493.642 Q192.825 490.887 190.88 489.151 Q188.959 487.415 185.857 487.415 Q183.658 487.415 181.204 488.179 Q178.774 488.943 175.996 490.494 L175.996 485.772 Q178.82 484.637 181.274 484.059 Q183.727 483.48 185.764 483.48 Q191.135 483.48 194.329 486.165 Q197.524 488.85 197.524 493.341 Q197.524 495.471 196.713 497.392 Q195.926 499.29 193.82 501.883 Q193.241 502.554 190.139 505.771 Q187.038 508.966 181.389 514.73 Z" fill="#000000" fill-rule="nonzero" fill-opacity="1" /><path clip-path="url(#clip630)" d="M114.908 198.38 L137.13 198.38 L137.13 200.37 L124.584 232.94 L119.7 232.94 L131.505 202.315 L114.908 202.315 L114.908 198.38 Z" fill="#000000" fill-rule="nonzero" fill-opacity="1" /><path clip-path="url(#clip630)" d="M146.297 198.38 L164.653 198.38 L164.653 202.315 L150.579 202.315 L150.579 210.787 Q151.598 210.44 152.616 210.278 Q153.635 210.093 154.653 210.093 Q160.44 210.093 163.82 213.264 Q167.2 216.435 167.2 221.852 Q167.2 227.43 163.727 230.532 Q160.255 233.611 153.936 233.611 Q151.76 233.611 149.491 233.241 Q147.246 232.87 144.839 232.13 L144.839 227.43 Q146.922 228.565 149.144 229.12 Q151.366 229.676 153.843 229.676 Q157.848 229.676 160.186 227.569 Q162.524 225.463 162.524 221.852 Q162.524 218.241 160.186 216.134 Q157.848 214.028 153.843 214.028 Q151.968 214.028 150.093 214.444 Q148.241 214.861 146.297 215.741 L146.297 198.38 Z" fill="#000000" fill-rule="nonzero" fill-opacity="1" /><path clip-path="url(#clip630)" d="M190.579 214.306 Q193.936 215.023 195.811 217.292 Q197.709 219.56 197.709 222.893 Q197.709 228.009 194.19 230.81 Q190.672 233.611 184.19 233.611 Q182.014 233.611 179.7 233.171 Q177.408 232.755 174.954 231.898 L174.954 227.384 Q176.899 228.518 179.214 229.097 Q181.528 229.676 184.051 229.676 Q188.45 229.676 190.741 227.94 Q193.056 226.204 193.056 222.893 Q193.056 219.838 190.903 218.125 Q188.774 216.389 184.954 216.389 L180.926 216.389 L180.926 212.546 L185.139 212.546 Q188.588 212.546 190.417 211.181 Q192.246 209.792 192.246 207.199 Q192.246 204.537 190.348 203.125 Q188.473 201.69 184.954 201.69 Q183.033 201.69 180.834 202.107 Q178.635 202.523 175.996 203.403 L175.996 199.236 Q178.658 198.495 180.973 198.125 Q183.311 197.755 185.371 197.755 Q190.695 197.755 193.797 200.185 Q196.899 202.593 196.899 206.713 Q196.899 209.583 195.255 211.574 Q193.612 213.542 190.579 214.306 Z" fill="#000000" fill-rule="nonzero" fill-opacity="1" /><path clip-path="url(#clip630)" d="M39.1142 1101.02 L39.1142 1087.52 L42.7427 1087.52 L42.7427 1106.56 L39.2416 1106.56 Q38.2549 1105.47 36.4725 1103.47 Q26.7648 1092.52 23.7729 1092.52 Q21.6722 1092.52 20.3991 1094.18 Q19.0941 1095.83 19.0941 1098.54 Q19.0941 1100.19 19.667 1102.13 Q20.2081 1104.07 21.3221 1106.37 L17.4072 1106.37 Q16.516 1103.91 16.0704 1101.81 Q15.6248 1099.68 15.6248 1097.87 Q15.6248 1093.25 17.7255 1090.48 Q19.8262 1087.71 23.2636 1087.71 Q27.6878 1087.71 36.7271 1098.25 Q38.2549 1100.03 39.1142 1101.02 Z" fill="#000000" fill-rule="nonzero" fill-opacity="1" /><path clip-path="url(#clip630)" d="M21.1948 1065.27 Q18.4575 1066.87 18.4575 1070.08 Q18.4575 1073.3 21.1948 1074.89 Q23.932 1076.51 29.4065 1076.51 Q34.9129 1076.51 37.6501 1074.89 Q40.3874 1073.3 40.3874 1070.08 Q40.3874 1066.87 37.6501 1065.27 Q34.9129 1063.65 29.4065 1063.65 Q23.932 1063.65 21.1948 1065.27 M15.6248 1070.08 Q15.6248 1064.96 19.1578 1062.25 Q22.6907 1059.55 29.4065 1059.55 Q36.1542 1059.55 39.6872 1062.25 Q43.2201 1064.96 43.2201 1070.08 Q43.2201 1075.24 39.6872 1077.94 Q36.1542 1080.65 29.4065 1080.65 Q22.6907 1080.65 19.1578 1077.94 Q15.6248 1075.24 15.6248 1070.08 Z" fill="#000000" fill-rule="nonzero" fill-opacity="1" /><path clip-path="url(#clip630)" d="M27.9424 1043.44 Q27.9424 1046.24 29.5975 1047.86 Q31.2844 1049.49 34.1808 1049.49 Q37.0454 1049.49 38.7005 1047.86 Q40.3874 1046.24 40.3874 1043.44 Q40.3874 1040.67 38.7005 1039.05 Q37.0454 1037.42 34.1808 1037.42 Q31.2844 1037.42 29.5975 1039.05 Q27.9424 1040.67 27.9424 1043.44 M16.6751 1035.23 L19.9535 1035.23 Q19.3169 1036.79 18.9986 1038.38 Q18.6485 1039.97 18.6485 1041.53 Q18.6485 1045.6 21.0356 1047.77 Q23.4546 1049.93 28.3244 1050.25 Q26.7648 1049.04 25.9372 1047.23 Q25.1097 1045.38 25.1097 1043.22 Q25.1097 1038.6 27.5287 1035.93 Q29.9795 1033.26 34.1808 1033.26 Q38.223 1033.26 40.7375 1036.06 Q43.2201 1038.83 43.2201 1043.44 Q43.2201 1048.76 39.6872 1051.56 Q36.1542 1054.36 29.4065 1054.36 Q23.1045 1054.36 19.3806 1050.92 Q15.6248 1047.48 15.6248 1041.69 Q15.6248 1040.13 15.8794 1038.54 Q16.1659 1036.95 16.6751 1035.23 Z" fill="#000000" fill-rule="nonzero" fill-opacity="1" /><path clip-path="url(#clip630)" d="M21.7677 1018.33 L39.6235 1018.33 L39.6235 1010.24 Q39.6235 1005.76 37.3 1003.3 Q34.9765 1000.85 30.6797 1000.85 Q26.4147 1000.85 24.0912 1003.3 Q21.7677 1005.76 21.7677 1010.24 L21.7677 1018.33 M16.4842 1024.76 L16.4842 1010.24 Q16.4842 1002.25 20.1126 998.18 Q23.7092 994.074 30.6797 994.074 Q37.7138 994.074 41.3104 998.18 Q44.907 1002.25 44.907 1010.24 L44.907 1018.33 L64.0042 1018.33 L64.0042 1024.76 L16.4842 1024.76 Z" fill="#000000" fill-rule="nonzero" fill-opacity="1" /><path clip-path="url(#clip630)" d="M46.212 960.113 Q39.7508 960.113 36.0905 962.787 Q32.3984 965.429 32.3984 970.076 Q32.3984 974.723 36.0905 977.396 Q39.7508 980.038 46.212 980.038 Q52.6732 980.038 56.3653 977.396 Q60.0256 974.723 60.0256 970.076 Q60.0256 965.429 56.3653 962.787 Q52.6732 960.113 46.212 960.113 M33.7671 980.038 Q30.5842 978.192 29.0564 975.391 Q27.4968 972.558 27.4968 968.643 Q27.4968 962.15 32.6531 958.108 Q37.8093 954.034 46.212 954.034 Q54.6147 954.034 59.771 958.108 Q64.9272 962.15 64.9272 968.643 Q64.9272 972.558 63.3994 975.391 Q61.8398 978.192 58.657 980.038 L64.0042 980.038 L64.0042 985.926 L14.479 985.926 L14.479 980.038 L33.7671 980.038 Z" fill="#000000" fill-rule="nonzero" fill-opacity="1" /><path clip-path="url(#clip630)" d="M16.4842 933.919 L16.4842 928.508 L70.0516 945.059 L70.0516 950.469 L16.4842 933.919 Z" fill="#000000" fill-rule="nonzero" fill-opacity="1" /><path clip-path="url(#clip630)" d="M39.1142 919.978 L39.1142 906.482 L42.7427 906.482 L42.7427 925.516 L39.2416 925.516 Q38.2549 924.434 36.4725 922.428 Q26.7648 911.479 23.7729 911.479 Q21.6722 911.479 20.3991 913.135 Q19.0941 914.79 19.0941 917.495 Q19.0941 919.15 19.667 921.092 Q20.2081 923.033 21.3221 925.325 L17.4072 925.325 Q16.516 922.874 16.0704 920.773 Q15.6248 918.641 15.6248 916.827 Q15.6248 912.211 17.7255 909.442 Q19.8262 906.673 23.2636 906.673 Q27.6878 906.673 36.7271 917.209 Q38.2549 918.991 39.1142 919.978 Z" fill="#000000" fill-rule="nonzero" fill-opacity="1" /><path clip-path="url(#clip630)" d="M28.3562 885.698 Q28.9291 882.77 30.6797 881.179 Q32.3984 879.555 35.0084 879.555 Q38.9551 879.555 41.0876 882.579 Q43.2201 885.603 43.2201 891.236 Q43.2201 893.051 42.9018 895.056 Q42.5517 897.029 41.9152 899.257 L38.0639 899.257 Q38.9233 897.602 39.337 895.724 Q39.7508 893.815 39.7508 891.682 Q39.7508 888.213 38.5095 886.303 Q37.2364 884.393 35.0084 884.393 Q32.6531 884.393 31.4436 886.176 Q30.2341 887.926 30.2341 891.364 L30.2341 894.101 L26.7966 894.101 L26.7966 891.109 Q26.7966 888.117 25.8099 886.59 Q24.7914 885.03 22.8817 885.03 Q21.0356 885.03 20.0808 886.621 Q19.0941 888.213 19.0941 891.236 Q19.0941 892.51 19.3806 894.133 Q19.667 895.756 20.3991 898.334 L16.7388 898.334 Q16.1977 896.011 15.9112 893.974 Q15.6248 891.937 15.6248 890.186 Q15.6248 885.603 17.5027 882.929 Q19.3806 880.224 22.5316 880.224 Q24.7277 880.224 26.2555 881.656 Q27.7833 883.088 28.3562 885.698 Z" fill="#000000" fill-rule="nonzero" fill-opacity="1" /><path clip-path="url(#clip630)" d="M31.4754 858.262 Q30.0749 859.949 30.0749 862.909 Q30.0749 865.869 31.4754 867.556 Q32.844 869.243 35.2312 869.243 Q37.6501 869.243 39.0188 867.556 Q40.3874 865.869 40.3874 862.909 Q40.3874 859.981 38.9869 858.262 Q37.6183 856.575 35.2312 856.575 Q32.844 856.575 31.4754 858.262 M28.5153 867.047 Q27.9424 869.72 26.3828 871.185 Q24.7914 872.68 22.4998 872.68 Q19.3169 872.68 17.4708 870.071 Q15.6248 867.461 15.6248 862.909 Q15.6248 858.358 17.4708 855.748 Q19.3169 853.17 22.4998 853.17 Q24.8551 853.17 26.3828 854.634 Q27.9424 856.13 28.5153 858.771 Q29.0883 855.907 30.9343 854.124 Q32.6849 852.438 35.2312 852.438 Q39.0824 852.438 41.1513 855.143 Q43.2201 857.88 43.2201 862.909 Q43.2201 867.97 41.1513 870.675 Q39.0824 873.413 35.2312 873.413 Q32.7485 873.413 30.9343 871.726 Q29.1519 870.007 28.5153 867.047 M22.8499 868.575 Q24.8551 868.575 26.0645 867.079 Q27.2422 865.615 27.2422 862.909 Q27.2422 860.331 26.0645 858.771 Q24.9187 857.244 22.8499 857.244 Q20.8447 857.244 19.6352 858.771 Q18.4575 860.267 18.4575 862.909 Q18.4575 865.551 19.6352 867.079 Q20.781 868.575 22.8499 868.575 Z" fill="#000000" fill-rule="nonzero" fill-opacity="1" /><path clip-path="url(#clip630)" d="M16.4842 844.449 L16.4842 837.987 L45.3526 837.987 Q52.9915 837.987 56.3653 835.218 Q59.7073 832.449 59.7073 826.243 Q59.7073 820.068 56.3653 817.299 Q52.9915 814.53 45.3526 814.53 L16.4842 814.53 L16.4842 808.069 L46.1484 808.069 Q55.4423 808.069 60.1847 812.684 Q64.9272 817.267 64.9272 826.243 Q64.9272 835.25 60.1847 839.865 Q55.4423 844.449 46.1484 844.449 L16.4842 844.449 Z" fill="#000000" fill-rule="nonzero" fill-opacity="1" /><path clip-path="url(#clip630)" d="M22.818 759.403 L46.4666 768.124 L46.4666 750.65 L22.818 759.403 M16.4842 763.031 L16.4842 755.742 L64.0042 737.632 L64.0042 744.316 L51.8138 748.645 L51.8138 770.065 L64.0042 774.394 L64.0042 781.173 L16.4842 763.031 Z" fill="#000000" fill-rule="nonzero" fill-opacity="1" /><path clip-path="url(#clip630)" d="M45.7664 707.49 Q39.4007 707.49 35.8996 710.132 Q32.3984 712.742 32.3984 717.485 Q32.3984 722.195 35.8996 724.837 Q39.4007 727.447 45.7664 727.447 Q52.1003 727.447 55.6014 724.837 Q59.1026 722.195 59.1026 717.485 Q59.1026 712.742 55.6014 710.132 Q52.1003 707.49 45.7664 707.49 M59.58 701.634 Q68.683 701.634 73.1071 705.676 Q77.5631 709.718 77.5631 718.057 Q77.5631 721.145 77.0857 723.882 Q76.6401 726.619 75.6852 729.197 L69.9879 729.197 Q71.3884 726.619 72.0568 724.105 Q72.7252 721.59 72.7252 718.98 Q72.7252 713.22 69.7015 710.355 Q66.7096 707.49 60.6303 707.49 L57.7339 707.49 Q60.885 709.305 62.4446 712.137 Q64.0042 714.97 64.0042 718.917 Q64.0042 725.473 59.0071 729.484 Q54.01 733.494 45.7664 733.494 Q37.491 733.494 32.4939 729.484 Q27.4968 725.473 27.4968 718.917 Q27.4968 714.97 29.0564 712.137 Q30.616 709.305 33.7671 707.49 L28.3562 707.49 L28.3562 701.634 L59.58 701.634 Z" fill="#000000" fill-rule="nonzero" fill-opacity="1" /><path clip-path="url(#clip630)" d="M44.7161 659.079 L47.5806 659.079 L47.5806 686.006 Q53.6281 685.624 56.8109 682.378 Q59.9619 679.099 59.9619 673.275 Q59.9619 669.901 59.1344 666.75 Q58.3069 663.567 56.6518 660.448 L62.1899 660.448 Q63.5267 663.599 64.227 666.909 Q64.9272 670.219 64.9272 673.625 Q64.9272 682.155 59.9619 687.152 Q54.9967 692.117 46.5303 692.117 Q37.7774 692.117 32.6531 687.407 Q27.4968 682.664 27.4968 674.643 Q27.4968 667.45 32.1438 663.281 Q36.7589 659.079 44.7161 659.079 M42.9973 664.936 Q38.1912 664.999 35.3266 667.641 Q32.4621 670.251 32.4621 674.58 Q32.4621 679.481 35.2312 682.441 Q38.0002 685.37 43.0292 685.815 L42.9973 664.936 Z" fill="#000000" fill-rule="nonzero" fill-opacity="1" /><path clip-path="url(#clip630)" d="M14.479 629.288 L14.479 615.792 L19.0304 615.792 L19.0304 623.431 L68.0464 623.431 L68.0464 615.792 L72.5979 615.792 L72.5979 629.288 L14.479 629.288 Z" fill="#000000" fill-rule="nonzero" fill-opacity="1" /><path clip-path="url(#clip630)" d="M16.4842 603.061 L16.4842 593.481 L48.8219 581.354 L16.4842 569.164 L16.4842 559.583 L64.0042 559.583 L64.0042 565.853 L22.277 565.853 L54.8694 578.107 L54.8694 584.569 L22.277 596.823 L64.0042 596.823 L64.0042 603.061 L16.4842 603.061 Z" fill="#000000" fill-rule="nonzero" fill-opacity="1" /><path clip-path="url(#clip630)" d="M46.0847 530.874 Q46.0847 537.972 47.7079 540.709 Q49.3312 543.446 53.2461 543.446 Q56.3653 543.446 58.2114 541.409 Q60.0256 539.34 60.0256 535.807 Q60.0256 530.937 56.5881 528.009 Q53.1188 525.049 47.3897 525.049 L46.0847 525.049 L46.0847 530.874 M43.6657 519.193 L64.0042 519.193 L64.0042 525.049 L58.5933 525.049 Q61.8398 527.054 63.3994 530.046 Q64.9272 533.038 64.9272 537.367 Q64.9272 542.841 61.8716 546.088 Q58.7843 549.303 53.6281 549.303 Q47.6125 549.303 44.5569 545.292 Q41.5014 541.25 41.5014 533.261 L41.5014 525.049 L40.9285 525.049 Q36.8862 525.049 34.6901 527.723 Q32.4621 530.365 32.4621 535.171 Q32.4621 538.226 33.1941 541.123 Q33.9262 544.019 35.3903 546.693 L29.9795 546.693 Q28.7381 543.478 28.1334 540.454 Q27.4968 537.431 27.4968 534.566 Q27.4968 526.832 31.5072 523.012 Q35.5176 519.193 43.6657 519.193 Z" fill="#000000" fill-rule="nonzero" fill-opacity="1" /><path clip-path="url(#clip630)" d="M14.479 493.443 L72.5979 493.443 L72.5979 506.939 L68.0464 506.939 L68.0464 499.332 L19.0304 499.332 L19.0304 506.939 L14.479 506.939 L14.479 493.443 Z" fill="#000000" fill-rule="nonzero" fill-opacity="1" /><polyline clip-path="url(#clip632)" style="stroke:#009af9; stroke-linecap:round; stroke-linejoin:round; stroke-width:4; stroke-opacity:1; fill:none" points="293.682,1510.15 293.682,1256.57 "/>
<polyline clip-path="url(#clip632)" style="stroke:#009af9; stroke-linecap:round; stroke-linejoin:round; stroke-width:4; stroke-opacity:1; fill:none" points="493.592,860.062 493.592,611.376 "/>
<polyline clip-path="url(#clip632)" style="stroke:#009af9; stroke-linecap:round; stroke-linejoin:round; stroke-width:4; stroke-opacity:1; fill:none" points="693.502,821.516 693.502,571.237 "/>
<polyline clip-path="url(#clip632)" style="stroke:#009af9; stroke-linecap:round; stroke-linejoin:round; stroke-width:4; stroke-opacity:1; fill:none" points="893.412,640.27 893.412,375.471 "/>
<polyline clip-path="url(#clip632)" style="stroke:#009af9; stroke-linecap:round; stroke-linejoin:round; stroke-width:4; stroke-opacity:1; fill:none" points="1093.32,576.787 1093.32,317.663 "/>
<polyline clip-path="url(#clip632)" style="stroke:#009af9; stroke-linecap:round; stroke-linejoin:round; stroke-width:4; stroke-opacity:1; fill:none" points="1293.23,507.677 1293.23,262.208 "/>
<polyline clip-path="url(#clip632)" style="stroke:#009af9; stroke-linecap:round; stroke-linejoin:round; stroke-width:4; stroke-opacity:1; fill:none" points="1493.14,496.988 1493.14,236.84 "/>
<polyline clip-path="url(#clip632)" style="stroke:#009af9; stroke-linecap:round; stroke-linejoin:round; stroke-width:4; stroke-opacity:1; fill:none" points="1693.05,488.033 1693.05,245.795 "/>
<polyline clip-path="url(#clip632)" style="stroke:#009af9; stroke-linecap:round; stroke-linejoin:round; stroke-width:4; stroke-opacity:1; fill:none" points="1892.96,463.45 1892.96,217.931 "/>
<polyline clip-path="url(#clip632)" style="stroke:#009af9; stroke-linecap:round; stroke-linejoin:round; stroke-width:4; stroke-opacity:1; fill:none" points="2092.87,351.928 2092.87,93.4517 "/>
<polyline clip-path="url(#clip632)" style="stroke:#009af9; stroke-linecap:round; stroke-linejoin:round; stroke-width:4; stroke-opacity:1; fill:none" points="2292.78,339.139 2292.78,89.8529 "/>
<line clip-path="url(#clip632)" x1="309.682" y1="1510.15" x2="277.682" y2="1510.15" style="stroke:#009af9; stroke-width:4; stroke-opacity:1"/>
<line clip-path="url(#clip632)" x1="309.682" y1="1256.57" x2="277.682" y2="1256.57" style="stroke:#009af9; stroke-width:4; stroke-opacity:1"/>
<line clip-path="url(#clip632)" x1="509.592" y1="860.062" x2="477.592" y2="860.062" style="stroke:#009af9; stroke-width:4; stroke-opacity:1"/>
<line clip-path="url(#clip632)" x1="509.592" y1="611.376" x2="477.592" y2="611.376" style="stroke:#009af9; stroke-width:4; stroke-opacity:1"/>
<line clip-path="url(#clip632)" x1="709.502" y1="821.516" x2="677.502" y2="821.516" style="stroke:#009af9; stroke-width:4; stroke-opacity:1"/>
<line clip-path="url(#clip632)" x1="709.502" y1="571.237" x2="677.502" y2="571.237" style="stroke:#009af9; stroke-width:4; stroke-opacity:1"/>
<line clip-path="url(#clip632)" x1="909.412" y1="640.27" x2="877.412" y2="640.27" style="stroke:#009af9; stroke-width:4; stroke-opacity:1"/>
<line clip-path="url(#clip632)" x1="909.412" y1="375.471" x2="877.412" y2="375.471" style="stroke:#009af9; stroke-width:4; stroke-opacity:1"/>
<line clip-path="url(#clip632)" x1="1109.32" y1="576.787" x2="1077.32" y2="576.787" style="stroke:#009af9; stroke-width:4; stroke-opacity:1"/>
<line clip-path="url(#clip632)" x1="1109.32" y1="317.663" x2="1077.32" y2="317.663" style="stroke:#009af9; stroke-width:4; stroke-opacity:1"/>
<line clip-path="url(#clip632)" x1="1309.23" y1="507.677" x2="1277.23" y2="507.677" style="stroke:#009af9; stroke-width:4; stroke-opacity:1"/>
<line clip-path="url(#clip632)" x1="1309.23" y1="262.208" x2="1277.23" y2="262.208" style="stroke:#009af9; stroke-width:4; stroke-opacity:1"/>
<line clip-path="url(#clip632)" x1="1509.14" y1="496.988" x2="1477.14" y2="496.988" style="stroke:#009af9; stroke-width:4; stroke-opacity:1"/>
<line clip-path="url(#clip632)" x1="1509.14" y1="236.84" x2="1477.14" y2="236.84" style="stroke:#009af9; stroke-width:4; stroke-opacity:1"/>
<line clip-path="url(#clip632)" x1="1709.05" y1="488.033" x2="1677.05" y2="488.033" style="stroke:#009af9; stroke-width:4; stroke-opacity:1"/>
<line clip-path="url(#clip632)" x1="1709.05" y1="245.795" x2="1677.05" y2="245.795" style="stroke:#009af9; stroke-width:4; stroke-opacity:1"/>
<line clip-path="url(#clip632)" x1="1908.96" y1="463.45" x2="1876.96" y2="463.45" style="stroke:#009af9; stroke-width:4; stroke-opacity:1"/>
<line clip-path="url(#clip632)" x1="1908.96" y1="217.931" x2="1876.96" y2="217.931" style="stroke:#009af9; stroke-width:4; stroke-opacity:1"/>
<line clip-path="url(#clip632)" x1="2108.87" y1="351.928" x2="2076.87" y2="351.928" style="stroke:#009af9; stroke-width:4; stroke-opacity:1"/>
<line clip-path="url(#clip632)" x1="2108.87" y1="93.4517" x2="2076.87" y2="93.4517" style="stroke:#009af9; stroke-width:4; stroke-opacity:1"/>
<line clip-path="url(#clip632)" x1="2308.78" y1="339.139" x2="2276.78" y2="339.139" style="stroke:#009af9; stroke-width:4; stroke-opacity:1"/>
<line clip-path="url(#clip632)" x1="2308.78" y1="89.8529" x2="2276.78" y2="89.8529" style="stroke:#009af9; stroke-width:4; stroke-opacity:1"/>
<circle clip-path="url(#clip632)" cx="293.682" cy="1383.36" r="14.4" fill="#009af9" fill-rule="evenodd" fill-opacity="1" stroke="none"/>
<circle clip-path="url(#clip632)" cx="493.592" cy="735.719" r="14.4" fill="#009af9" fill-rule="evenodd" fill-opacity="1" stroke="none"/>
<circle clip-path="url(#clip632)" cx="693.502" cy="696.376" r="14.4" fill="#009af9" fill-rule="evenodd" fill-opacity="1" stroke="none"/>
<circle clip-path="url(#clip632)" cx="893.412" cy="507.871" r="14.4" fill="#009af9" fill-rule="evenodd" fill-opacity="1" stroke="none"/>
<circle clip-path="url(#clip632)" cx="1093.32" cy="447.225" r="14.4" fill="#009af9" fill-rule="evenodd" fill-opacity="1" stroke="none"/>
<circle clip-path="url(#clip632)" cx="1293.23" cy="384.943" r="14.4" fill="#009af9" fill-rule="evenodd" fill-opacity="1" stroke="none"/>
<circle clip-path="url(#clip632)" cx="1493.14" cy="366.914" r="14.4" fill="#009af9" fill-rule="evenodd" fill-opacity="1" stroke="none"/>
<circle clip-path="url(#clip632)" cx="1693.05" cy="366.914" r="14.4" fill="#009af9" fill-rule="evenodd" fill-opacity="1" stroke="none"/>
<circle clip-path="url(#clip632)" cx="1892.96" cy="340.69" r="14.4" fill="#009af9" fill-rule="evenodd" fill-opacity="1" stroke="none"/>
<circle clip-path="url(#clip632)" cx="2092.87" cy="222.69" r="14.4" fill="#009af9" fill-rule="evenodd" fill-opacity="1" stroke="none"/>
<circle clip-path="url(#clip632)" cx="2292.78" cy="214.496" r="14.4" fill="#009af9" fill-rule="evenodd" fill-opacity="1" stroke="none"/>
</svg>
